# This file uses centimeters as units for non-parametric coordinates.

mtllib setdressing_box_02.mtl
g default
v 0.256450 0.000000 -0.123500
v 0.177470 0.000000 -0.222540
v 0.063340 0.000000 -0.277510
v -0.063340 0.000000 -0.277510
v -0.177470 0.000000 -0.222540
v -0.256460 0.000000 -0.123500
v -0.284650 0.000000 0.000000
v -0.256460 0.000000 0.123500
v -0.177470 0.000000 0.222540
v -0.063340 0.000000 0.277510
v 0.063340 0.000000 0.277510
v 0.177470 0.000000 0.222540
v 0.256450 0.000000 0.123500
v 0.284640 0.000000 0.000000
v 0.250190 0.788490 -0.120490
v 0.173140 0.788490 -0.217110
v 0.061790 0.788490 -0.270730
v -0.061790 0.788490 -0.270730
v -0.173140 0.788490 -0.217110
v -0.250190 0.788490 -0.120490
v -0.277690 0.788490 0.000000
v -0.250190 0.788490 0.120490
v -0.173140 0.788490 0.217110
v -0.061790 0.788490 0.270730
v 0.061790 0.788490 0.270730
v 0.173140 0.788490 0.217110
v 0.250190 0.788490 0.120490
v 0.277690 0.788490 0.000000
v 0.303260 0.323650 -0.146040
v 0.336600 0.323650 0.000000
v 0.303260 0.323650 0.146040
v 0.209860 0.323650 0.263160
v 0.074900 0.323650 0.328160
v -0.074900 0.323650 0.328160
v -0.209870 0.323650 0.263160
v -0.303270 0.323650 0.146040
v -0.336600 0.323650 0.000000
v -0.303270 0.323650 -0.146040
v -0.209870 0.323650 -0.263160
v -0.074900 0.323650 -0.328160
v 0.074900 0.323650 -0.328160
v 0.209860 0.323650 -0.263160
v 0.303260 0.506590 -0.146040
v 0.336600 0.506590 0.000000
v 0.303260 0.506590 0.146040
v 0.209860 0.506590 0.263160
v 0.074900 0.506590 0.328160
v -0.074900 0.506590 0.328160
v -0.209870 0.506590 0.263160
v -0.303270 0.506590 0.146040
v -0.336600 0.506590 0.000000
v -0.303270 0.506590 -0.146040
v -0.209870 0.506590 -0.263160
v -0.074900 0.506590 -0.328160
v 0.074900 0.506590 -0.328160
v 0.209860 0.506590 -0.263160
v 0.234370 0.785650 -0.112870
v 0.162190 0.785650 -0.203380
v 0.057880 0.785650 -0.253610
v -0.057890 0.785650 -0.253610
v -0.162190 0.785650 -0.203380
v -0.234380 0.785650 -0.112870
v -0.260140 0.785650 0.000000
v -0.234380 0.785650 0.112870
v -0.162190 0.785650 0.203380
v -0.057890 0.785650 0.253610
v 0.057880 0.785650 0.253610
v 0.162190 0.785650 0.203380
v 0.234370 0.785650 0.112870
v 0.260130 0.785650 0.000000
v 0.241150 0.761610 -0.116130
v 0.166880 0.761610 -0.209270
v 0.059560 0.761610 -0.260950
v -0.059560 0.761610 -0.260950
v -0.166890 0.761610 -0.209270
v -0.241160 0.761610 -0.116130
v -0.267660 0.761610 0.000000
v -0.241160 0.761610 0.116140
v -0.166890 0.761610 0.209270
v -0.059560 0.761610 0.260950
v 0.059560 0.761610 0.260950
v 0.166880 0.761610 0.209270
v 0.241150 0.761610 0.116140
v 0.267660 0.761610 0.000000
v 0.000000 0.761610 0.000000
vt 0.733088 0.042447
vt 0.799324 0.042447
vt 0.799324 0.232758
vt 0.733088 0.232758
vt 0.865559 0.042447
vt 0.865559 0.232758
vt 0.931794 0.042447
vt 0.931794 0.232758
vt 0.004504 0.042447
vt 0.070739 0.042447
vt 0.070739 0.232758
vt 0.004504 0.232758
vt 0.136973 0.042447
vt 0.136973 0.232758
vt 0.203208 0.042447
vt 0.203208 0.232758
vt 0.269443 0.042447
vt 0.269443 0.232758
vt 0.335678 0.042447
vt 0.335678 0.232758
vt 0.401913 0.042447
vt 0.401913 0.232758
vt 0.468148 0.042447
vt 0.468148 0.232758
vt 0.534383 0.042447
vt 0.534383 0.232758
vt 0.600618 0.042447
vt 0.600618 0.232758
vt 0.666853 0.042447
vt 0.666853 0.232758
vt 0.733088 0.340330
vt 0.666853 0.340330
vt 0.600618 0.340330
vt 0.534383 0.340330
vt 0.468148 0.340330
vt 0.401913 0.340330
vt 0.335678 0.340330
vt 0.269443 0.340330
vt 0.203208 0.340330
vt 0.136973 0.340330
vt 0.070739 0.340330
vt 0.004504 0.340330
vt 0.931794 0.340330
vt 0.865559 0.340330
vt 0.799324 0.340330
vt 0.733089 0.506091
vt 0.666853 0.506091
vt 0.600618 0.506091
vt 0.534383 0.506091
vt 0.468148 0.506091
vt 0.401913 0.506091
vt 0.335678 0.506091
vt 0.269443 0.506091
vt 0.203208 0.506091
vt 0.136973 0.506091
vt 0.070739 0.506091
vt 0.004504 0.506091
vt 0.931794 0.506091
vt 0.865559 0.506091
vt 0.799324 0.506091
vt 0.670760 0.786960
vt 0.606435 0.869696
vt 0.597297 0.857943
vt 0.657557 0.780438
vt 0.513481 0.915611
vt 0.510220 0.900956
vt 0.410311 0.915611
vt 0.413572 0.900956
vt 0.317357 0.869697
vt 0.326494 0.857943
vt 0.253031 0.786960
vt 0.266235 0.780438
vt 0.230073 0.683789
vt 0.244729 0.683789
vt 0.253031 0.580618
vt 0.266235 0.587141
vt 0.317357 0.497881
vt 0.326494 0.509635
vt 0.410311 0.451966
vt 0.413572 0.466622
vt 0.513481 0.451966
vt 0.510220 0.466622
vt 0.606435 0.497881
vt 0.597297 0.509635
vt 0.670760 0.580618
vt 0.657557 0.587141
vt 0.693718 0.683789
vt 0.679062 0.683789
vt 0.759968 0.913939
vt 0.826203 0.913939
vt 0.826204 0.899803
vt 0.759968 0.899803
vt 0.892438 0.913939
vt 0.892438 0.899803
vt 0.958673 0.913939
vt 0.958673 0.899803
vt 0.031383 0.913939
vt 0.097618 0.913939
vt 0.097618 0.899803
vt 0.031383 0.899803
vt 0.163853 0.913939
vt 0.163853 0.899803
vt 0.230088 0.913939
vt 0.230088 0.899803
vt 0.296323 0.913939
vt 0.296323 0.899803
vt 0.362558 0.913939
vt 0.362558 0.899803
vt 0.428793 0.913939
vt 0.428793 0.899803
vt 0.495028 0.913939
vt 0.495027 0.899803
vt 0.561263 0.913939
vt 0.561263 0.899803
vt 0.627498 0.913939
vt 0.627498 0.899803
vt 0.693733 0.913939
vt 0.693733 0.899803
vt 0.663218 0.783234
vt 0.601215 0.862982
vt 0.461896 0.683789
vt 0.511619 0.907239
vt 0.412174 0.907239
vt 0.322577 0.862982
vt 0.260574 0.783234
vt 0.238445 0.683789
vt 0.260574 0.584344
vt 0.322577 0.504596
vt 0.412174 0.460339
vt 0.511619 0.460339
vt 0.601215 0.504596
vt 0.663218 0.584344
vt 0.685346 0.683789
vn 0.889581 -0.158493 -0.428400
vn 0.615611 -0.158494 -0.771948
vn 0.620480 -0.098182 -0.778052
vn 0.896616 -0.098181 -0.431787
vn 0.615611 -0.158494 -0.771948
vn 0.219708 -0.158494 -0.962605
vn 0.221447 -0.098182 -0.970217
vn 0.620480 -0.098182 -0.778052
vn 0.219708 -0.158494 -0.962605
vn -0.219708 -0.158494 -0.962605
vn -0.221446 -0.098181 -0.970218
vn 0.221447 -0.098182 -0.970217
vn -0.219708 -0.158494 -0.962605
vn -0.615609 -0.158494 -0.771949
vn -0.620479 -0.098181 -0.778053
vn -0.221446 -0.098181 -0.970218
vn -0.615609 -0.158494 -0.771949
vn -0.889581 -0.158493 -0.428400
vn -0.896616 -0.098181 -0.431787
vn -0.620479 -0.098181 -0.778053
vn -0.889581 -0.158493 -0.428400
vn -0.987360 -0.158492 0.000000
vn -0.995169 -0.098180 0.000000
vn -0.896616 -0.098181 -0.431787
vn -0.987360 -0.158492 0.000000
vn -0.889581 -0.158493 0.428399
vn -0.896617 -0.098181 0.431786
vn -0.995169 -0.098180 0.000000
vn -0.889581 -0.158493 0.428399
vn -0.615610 -0.158494 0.771948
vn -0.620480 -0.098182 0.778052
vn -0.896617 -0.098181 0.431786
vn -0.615610 -0.158494 0.771948
vn -0.219709 -0.158494 0.962605
vn -0.221447 -0.098182 0.970217
vn -0.620480 -0.098182 0.778052
vn -0.219709 -0.158494 0.962605
vn 0.219708 -0.158494 0.962605
vn 0.221446 -0.098182 0.970218
vn -0.221447 -0.098182 0.970217
vn 0.219708 -0.158494 0.962605
vn 0.615609 -0.158494 0.771949
vn 0.620478 -0.098182 0.778054
vn 0.221446 -0.098182 0.970218
vn 0.615609 -0.158494 0.771949
vn 0.889581 -0.158493 0.428399
vn 0.896616 -0.098181 0.431787
vn 0.620478 -0.098182 0.778054
vn 0.889581 -0.158493 0.428399
vn 0.987360 -0.158493 0.000000
vn 0.995169 -0.098181 0.000000
vn 0.896616 -0.098181 0.431787
vn 0.987360 -0.158493 0.000000
vn 0.889581 -0.158493 -0.428400
vn 0.896616 -0.098181 -0.431787
vn 0.995169 -0.098181 0.000000
vn 0.995169 -0.098181 0.000000
vn 0.896616 -0.098181 -0.431787
vn 0.894491 0.119701 -0.430764
vn 0.992810 0.119701 0.000000
vn 0.896616 -0.098181 0.431787
vn 0.995169 -0.098181 0.000000
vn 0.992810 0.119701 0.000000
vn 0.894491 0.119701 0.430763
vn 0.620478 -0.098182 0.778054
vn 0.896616 -0.098181 0.431787
vn 0.894491 0.119701 0.430763
vn 0.619007 0.119701 0.776210
vn 0.221446 -0.098182 0.970218
vn 0.620478 -0.098182 0.778054
vn 0.619007 0.119701 0.776210
vn 0.220921 0.119702 0.967918
vn -0.221447 -0.098182 0.970217
vn 0.221446 -0.098182 0.970218
vn 0.220921 0.119702 0.967918
vn -0.220921 0.119702 0.967918
vn -0.620480 -0.098182 0.778052
vn -0.221447 -0.098182 0.970217
vn -0.220921 0.119702 0.967918
vn -0.619008 0.119701 0.776209
vn -0.896617 -0.098181 0.431786
vn -0.620480 -0.098182 0.778052
vn -0.619008 0.119701 0.776209
vn -0.894492 0.119700 0.430761
vn -0.995169 -0.098180 0.000000
vn -0.896617 -0.098181 0.431786
vn -0.894492 0.119700 0.430761
vn -0.992810 0.119700 0.000000
vn -0.896616 -0.098181 -0.431787
vn -0.995169 -0.098180 0.000000
vn -0.992810 0.119700 0.000000
vn -0.894491 0.119701 -0.430764
vn -0.620479 -0.098181 -0.778053
vn -0.896616 -0.098181 -0.431787
vn -0.894491 0.119701 -0.430764
vn -0.619007 0.119701 -0.776210
vn -0.221446 -0.098181 -0.970218
vn -0.620479 -0.098181 -0.778053
vn -0.619007 0.119701 -0.776210
vn -0.220922 0.119701 -0.967918
vn 0.221447 -0.098182 -0.970217
vn -0.221446 -0.098181 -0.970218
vn -0.220922 0.119701 -0.967918
vn 0.220922 0.119701 -0.967918
vn 0.620480 -0.098182 -0.778052
vn 0.221447 -0.098182 -0.970217
vn 0.220922 0.119701 -0.967918
vn 0.619009 0.119701 -0.776209
vn 0.896616 -0.098181 -0.431787
vn 0.620480 -0.098182 -0.778052
vn 0.619009 0.119701 -0.776209
vn 0.894491 0.119701 -0.430764
vn 0.992810 0.119701 0.000000
vn 0.894491 0.119701 -0.430764
vn 0.881921 0.204541 -0.424711
vn 0.978858 0.204541 0.000000
vn 0.894491 0.119701 0.430763
vn 0.992810 0.119701 0.000000
vn 0.978858 0.204541 0.000000
vn 0.881921 0.204541 0.424710
vn 0.619007 0.119701 0.776210
vn 0.894491 0.119701 0.430763
vn 0.881921 0.204541 0.424710
vn 0.610307 0.204542 0.765303
vn 0.220921 0.119702 0.967918
vn 0.619007 0.119701 0.776210
vn 0.610307 0.204542 0.765303
vn 0.217816 0.204543 0.954316
vn -0.220921 0.119702 0.967918
vn 0.220921 0.119702 0.967918
vn 0.217816 0.204543 0.954316
vn -0.217815 0.204543 0.954316
vn -0.619008 0.119701 0.776209
vn -0.220921 0.119702 0.967918
vn -0.217815 0.204543 0.954316
vn -0.610308 0.204541 0.765302
vn -0.894492 0.119700 0.430761
vn -0.619008 0.119701 0.776209
vn -0.610308 0.204541 0.765302
vn -0.881922 0.204540 0.424709
vn -0.992810 0.119700 0.000000
vn -0.894492 0.119700 0.430761
vn -0.881922 0.204540 0.424709
vn -0.978858 0.204540 0.000000
vn -0.894491 0.119701 -0.430764
vn -0.992810 0.119700 0.000000
vn -0.978858 0.204540 0.000000
vn -0.881921 0.204540 -0.424711
vn -0.619007 0.119701 -0.776210
vn -0.894491 0.119701 -0.430764
vn -0.881921 0.204540 -0.424711
vn -0.610308 0.204541 -0.765302
vn -0.220922 0.119701 -0.967918
vn -0.619007 0.119701 -0.776210
vn -0.610308 0.204541 -0.765302
vn -0.217817 0.204541 -0.954316
vn 0.220922 0.119701 -0.967918
vn -0.220922 0.119701 -0.967918
vn -0.217817 0.204541 -0.954316
vn 0.217817 0.204542 -0.954316
vn 0.619009 0.119701 -0.776209
vn 0.220922 0.119701 -0.967918
vn 0.217817 0.204542 -0.954316
vn 0.610309 0.204541 -0.765301
vn 0.894491 0.119701 -0.430764
vn 0.619009 0.119701 -0.776209
vn 0.610309 0.204541 -0.765301
vn 0.881921 0.204541 -0.424711
vn -0.144103 0.987126 0.069397
vn -0.099721 0.987126 0.125048
vn -0.099722 0.987126 0.125048
vn -0.144103 0.987126 0.069396
vn -0.099721 0.987126 0.125048
vn -0.035590 0.987127 0.155929
vn -0.035589 0.987127 0.155929
vn -0.099722 0.987126 0.125048
vn -0.035590 0.987127 0.155929
vn 0.035589 0.987127 0.155929
vn 0.035589 0.987127 0.155929
vn -0.035589 0.987127 0.155929
vn 0.035589 0.987127 0.155929
vn 0.099721 0.987126 0.125049
vn 0.099723 0.987126 0.125048
vn 0.035589 0.987127 0.155929
vn 0.099721 0.987126 0.125049
vn 0.144103 0.987126 0.069397
vn 0.144103 0.987126 0.069396
vn 0.099723 0.987126 0.125048
vn 0.144103 0.987126 0.069397
vn 0.159940 0.987127 0.000000
vn 0.159940 0.987127 0.000000
vn 0.144103 0.987126 0.069396
vn 0.159940 0.987127 0.000000
vn 0.144101 0.987127 -0.069396
vn 0.144102 0.987127 -0.069395
vn 0.159940 0.987127 0.000000
vn 0.144101 0.987127 -0.069396
vn 0.099721 0.987126 -0.125048
vn 0.099722 0.987126 -0.125048
vn 0.144102 0.987127 -0.069395
vn 0.099721 0.987126 -0.125048
vn 0.035590 0.987126 -0.155932
vn 0.035590 0.987126 -0.155932
vn 0.099722 0.987126 -0.125048
vn 0.035590 0.987126 -0.155932
vn -0.035591 0.987126 -0.155933
vn -0.035590 0.987126 -0.155933
vn 0.035590 0.987126 -0.155932
vn -0.035591 0.987126 -0.155933
vn -0.099722 0.987126 -0.125050
vn -0.099723 0.987126 -0.125048
vn -0.035590 0.987126 -0.155933
vn -0.099722 0.987126 -0.125050
vn -0.144102 0.987126 -0.069397
vn -0.144103 0.987126 -0.069395
vn -0.099723 0.987126 -0.125048
vn -0.144102 0.987126 -0.069397
vn -0.159940 0.987127 -0.000000
vn -0.159940 0.987127 -0.000000
vn -0.144103 0.987126 -0.069395
vn -0.159940 0.987127 -0.000000
vn -0.144103 0.987126 0.069397
vn -0.144103 0.987126 0.069396
vn -0.159940 0.987127 -0.000000
vn -0.859812 -0.298791 0.414062
vn -0.595008 -0.298791 0.746116
vn -0.595006 -0.298791 0.746118
vn -0.859812 -0.298791 0.414063
vn -0.595008 -0.298791 0.746116
vn -0.212355 -0.298807 0.930387
vn -0.212355 -0.298807 0.930387
vn -0.595006 -0.298791 0.746118
vn -0.212355 -0.298807 0.930387
vn 0.212354 -0.298807 0.930387
vn 0.212355 -0.298807 0.930387
vn -0.212355 -0.298807 0.930387
vn 0.212354 -0.298807 0.930387
vn 0.595008 -0.298791 0.746116
vn 0.595005 -0.298791 0.746118
vn 0.212355 -0.298807 0.930387
vn 0.595008 -0.298791 0.746116
vn 0.859812 -0.298791 0.414062
vn 0.859812 -0.298791 0.414063
vn 0.595005 -0.298791 0.746118
vn 0.859812 -0.298791 0.414062
vn 0.954315 -0.298802 0.000000
vn 0.954315 -0.298802 0.000000
vn 0.859812 -0.298791 0.414063
vn 0.954315 -0.298802 0.000000
vn 0.859812 -0.298797 -0.414057
vn 0.859809 -0.298797 -0.414064
vn 0.954315 -0.298802 0.000000
vn 0.859812 -0.298797 -0.414057
vn 0.595007 -0.298796 -0.746115
vn 0.595005 -0.298796 -0.746117
vn 0.859809 -0.298797 -0.414064
vn 0.595007 -0.298796 -0.746115
vn 0.212354 -0.298807 -0.930387
vn 0.212354 -0.298807 -0.930387
vn 0.595005 -0.298796 -0.746117
vn 0.212354 -0.298807 -0.930387
vn -0.212354 -0.298806 -0.930387
vn -0.212355 -0.298806 -0.930387
vn 0.212354 -0.298807 -0.930387
vn -0.212354 -0.298806 -0.930387
vn -0.595007 -0.298794 -0.746116
vn -0.595004 -0.298794 -0.746118
vn -0.212355 -0.298806 -0.930387
vn -0.595007 -0.298794 -0.746116
vn -0.859812 -0.298796 -0.414058
vn -0.859809 -0.298796 -0.414064
vn -0.595004 -0.298794 -0.746118
vn -0.859812 -0.298796 -0.414058
vn -0.954315 -0.298802 0.000000
vn -0.954315 -0.298802 0.000000
vn -0.859809 -0.298796 -0.414064
vn -0.954315 -0.298802 0.000000
vn -0.859812 -0.298791 0.414062
vn -0.859812 -0.298791 0.414063
vn -0.954315 -0.298802 0.000000
vn 0.000000 1.000000 0.000000
vn 0.000000 1.000000 0.000000
vn 0.000000 1.000000 0.000000
vn 0.000001 1.000000 0.000000
vn 0.000001 1.000000 0.000000
vn 0.000001 1.000000 0.000000
vn 0.000000 1.000000 0.000000
vn 0.000000 1.000000 0.000000
vn 0.000000 1.000000 0.000000
vn 0.000000 1.000000 0.000000
vn 0.000000 1.000000 0.000000
vn 0.000000 1.000000 0.000000
vn 0.000000 1.000000 0.000000
vn 0.000000 1.000000 0.000000
vn 0.000000 1.000000 0.000000
vn 0.000000 1.000000 0.000001
vn 0.000000 1.000000 0.000001
vn 0.000000 1.000000 0.000001
vn 0.000000 1.000000 -0.000001
vn 0.000000 1.000000 -0.000001
vn 0.000000 1.000000 -0.000001
vn 0.000000 1.000000 0.000000
vn 0.000000 1.000000 0.000000
vn 0.000000 1.000000 0.000000
vn 0.000000 1.000000 0.000000
vn 0.000000 1.000000 0.000000
vn 0.000000 1.000000 0.000000
vn 0.000001 1.000000 0.000000
vn 0.000001 1.000000 0.000000
vn 0.000001 1.000000 0.000000
vn 0.000000 1.000000 0.000000
vn 0.000000 1.000000 0.000000
vn 0.000000 1.000000 0.000000
vn -0.000001 1.000000 0.000000
vn -0.000001 1.000000 0.000000
vn -0.000001 1.000000 0.000000
vn 0.000000 1.000000 0.000000
vn 0.000000 1.000000 0.000000
vn 0.000000 1.000000 0.000000
vn -0.000000 1.000000 -0.000000
vn -0.000000 1.000000 -0.000000
vn -0.000000 1.000000 -0.000000
s off
g setdressing_box_02_setdress_barrel_pCylinder2
usemtl lambert2SG
f 1/1/1 2/2/2 42/3/3 29/4/4
f 2/2/5 3/5/6 41/6/7 42/3/8
f 3/5/9 4/7/10 40/8/11 41/6/12
f 4/9/13 5/10/14 39/11/15 40/12/16
f 5/10/17 6/13/18 38/14/19 39/11/20
f 6/13/21 7/15/22 37/16/23 38/14/24
f 7/15/25 8/17/26 36/18/27 37/16/28
f 8/17/29 9/19/30 35/20/31 36/18/32
f 9/19/33 10/21/34 34/22/35 35/20/36
f 10/21/37 11/23/38 33/24/39 34/22/40
f 11/23/41 12/25/42 32/26/43 33/24/44
f 12/25/45 13/27/46 31/28/47 32/26/48
f 13/27/49 14/29/50 30/30/51 31/28/52
f 14/29/53 1/1/54 29/4/55 30/30/56
f 30/30/57 29/4/58 43/31/59 44/32/60
f 31/28/61 30/30/62 44/32/63 45/33/64
f 32/26/65 31/28/66 45/33/67 46/34/68
f 33/24/69 32/26/70 46/34/71 47/35/72
f 34/22/73 33/24/74 47/35/75 48/36/76
f 35/20/77 34/22/78 48/36/79 49/37/80
f 36/18/81 35/20/82 49/37/83 50/38/84
f 37/16/85 36/18/86 50/38/87 51/39/88
f 38/14/89 37/16/90 51/39/91 52/40/92
f 39/11/93 38/14/94 52/40/95 53/41/96
f 40/12/97 39/11/98 53/41/99 54/42/100
f 41/6/101 40/8/102 54/43/103 55/44/104
f 42/3/105 41/6/106 55/44/107 56/45/108
f 29/4/109 42/3/110 56/45/111 43/31/112
f 44/32/113 43/31/114 15/46/115 28/47/116
f 45/33/117 44/32/118 28/47/119 27/48/120
f 46/34/121 45/33/122 27/48/123 26/49/124
f 47/35/125 46/34/126 26/49/127 25/50/128
f 48/36/129 47/35/130 25/50/131 24/51/132
f 49/37/133 48/36/134 24/51/135 23/52/136
f 50/38/137 49/37/138 23/52/139 22/53/140
f 51/39/141 50/38/142 22/53/143 21/54/144
f 52/40/145 51/39/146 21/54/147 20/55/148
f 53/41/149 52/40/150 20/55/151 19/56/152
f 54/42/153 53/41/154 19/56/155 18/57/156
f 55/44/157 54/43/158 18/58/159 17/59/160
f 56/45/161 55/44/162 17/59/163 16/60/164
f 43/31/165 56/45/166 16/60/167 15/46/168
f 15/61/169 16/62/170 58/63/171 57/64/172
f 16/62/173 17/65/174 59/66/175 58/63/176
f 17/65/177 18/67/178 60/68/179 59/66/180
f 18/67/181 19/69/182 61/70/183 60/68/184
f 19/69/185 20/71/186 62/72/187 61/70/188
f 20/71/189 21/73/190 63/74/191 62/72/192
f 21/73/193 22/75/194 64/76/195 63/74/196
f 22/75/197 23/77/198 65/78/199 64/76/200
f 23/77/201 24/79/202 66/80/203 65/78/204
f 24/79/205 25/81/206 67/82/207 66/80/208
f 25/81/209 26/83/210 68/84/211 67/82/212
f 26/83/213 27/85/214 69/86/215 68/84/216
f 27/85/217 28/87/218 70/88/219 69/86/220
f 28/87/221 15/61/222 57/64/223 70/88/224
f 57/89/225 58/90/226 72/91/227 71/92/228
f 58/90/229 59/93/230 73/94/231 72/91/232
f 59/93/233 60/95/234 74/96/235 73/94/236
f 60/97/237 61/98/238 75/99/239 74/100/240
f 61/98/241 62/101/242 76/102/243 75/99/244
f 62/101/245 63/103/246 77/104/247 76/102/248
f 63/103/249 64/105/250 78/106/251 77/104/252
f 64/105/253 65/107/254 79/108/255 78/106/256
f 65/107/257 66/109/258 80/110/259 79/108/260
f 66/109/261 67/111/262 81/112/263 80/110/264
f 67/111/265 68/113/266 82/114/267 81/112/268
f 68/113/269 69/115/270 83/116/271 82/114/272
f 69/115/273 70/117/274 84/118/275 83/116/276
f 70/117/277 57/89/278 71/92/279 84/118/280
f 71/119/281 72/120/282 85/121/283
f 72/120/284 73/122/285 85/121/286
f 73/122/287 74/123/288 85/121/289
f 74/123/290 75/124/291 85/121/292
f 75/124/293 76/125/294 85/121/295
f 76/125/296 77/126/297 85/121/298
f 77/126/299 78/127/300 85/121/301
f 78/127/302 79/128/303 85/121/304
f 79/128/305 80/129/306 85/121/307
f 80/129/308 81/130/309 85/121/310
f 81/130/311 82/131/312 85/121/313
f 82/131/314 83/132/315 85/121/316
f 83/132/317 84/133/318 85/121/319
f 84/133/320 71/119/321 85/121/322
