# This file uses centimeters as units for non-parametric coordinates.

mtllib setdressing_box_01.mtl
g default
v -0.042060 0.294160 0.265390
v 0.281570 0.294160 0.126700
v -0.042060 0.311860 0.265390
v 0.281570 0.311860 0.126700
v -0.281570 0.311860 -0.205450
v 0.042060 0.311860 -0.344140
v -0.281570 0.294160 -0.205450
v 0.042060 0.294160 -0.344140
v -0.179500 0.294260 0.253130
v 0.177660 0.294260 0.253130
v -0.179500 0.294260 -0.266500
v 0.177660 0.294260 -0.266500
v -0.179500 0.056910 0.253130
v 0.177660 0.056910 0.253130
v -0.179500 0.056910 -0.266500
v 0.177660 0.056910 -0.266500
v 0.193730 0.000000 0.258350
v 0.183350 0.000000 0.267880
v 0.183250 0.294160 0.267790
v 0.193630 0.294160 0.258260
v -0.185180 0.000000 0.267880
v -0.195570 0.000000 0.258350
v -0.185090 0.294160 0.267790
v -0.195470 0.294160 0.258260
v 0.183350 0.000000 -0.281250
v 0.193730 0.000000 -0.271720
v 0.193630 0.294160 -0.271630
v 0.183250 0.294160 -0.281160
v -0.195570 0.000000 -0.271720
v -0.185180 0.000000 -0.281250
v -0.185090 0.294160 -0.281160
v -0.195470 0.294160 -0.271630
vt 0.429416 0.287768
vt 0.570584 0.287767
vt 0.571268 0.290114
vt 0.428732 0.290114
vt 0.571494 0.516762
vt 0.428506 0.516764
vt 0.571496 0.519442
vt 0.428504 0.519440
vt 0.571537 0.746239
vt 0.428463 0.746239
vt 0.752699 0.288145
vt 0.753810 0.290297
vt 0.247301 0.289668
vt 0.246190 0.291819
vt 0.351039 0.925305
vt 0.351298 0.787467
vt 0.479600 0.787789
vt 0.479275 0.925438
vt 0.826300 0.788346
vt 0.826022 0.926135
vt 0.697807 0.925989
vt 0.697991 0.788027
vt 0.697533 1.054177
vt 0.479105 1.053801
vt 0.479797 0.659402
vt 0.698257 0.659851
vt 0.641424 0.409310
vt 0.639136 0.568250
vt 0.488629 0.567112
vt 0.488814 0.408161
vt 0.085317 0.564073
vt 0.085497 0.405119
vt 0.237056 0.406261
vt 0.235822 0.565210
vt 0.481389 0.408105
vt 0.480147 0.567048
vt 0.244305 0.565274
vt 0.242353 0.406301
vt 0.884618 0.411146
vt 0.883461 0.570091
vt 0.647618 0.568314
vt 0.648853 0.409366
vt 0.129787 0.734706
vt 0.126583 0.729450
vt 0.274204 0.729450
vt 0.271001 0.734706
vt 0.126583 0.963797
vt 0.123511 0.960713
vt 0.129787 0.958541
vt 0.081076 0.564040
vt 0.082315 0.405095
vt 0.277277 0.732534
vt 0.123511 0.732534
vt 0.276256 0.961745
vt 0.273172 0.964818
vt 0.271001 0.958542
vn 0.393891 0.000000 0.919157
vn 0.393891 0.000000 0.919157
vn 0.393891 0.000000 0.919157
vn 0.393891 0.000000 0.919157
vn 0.000000 1.000000 0.000000
vn 0.000000 1.000000 0.000000
vn 0.000000 1.000000 0.000000
vn 0.000000 1.000000 0.000000
vn -0.393893 0.000000 -0.919156
vn -0.393893 0.000000 -0.919156
vn -0.393893 0.000000 -0.919156
vn -0.393893 0.000000 -0.919156
vn 0.000000 -1.000000 0.000000
vn 0.000000 -1.000000 0.000000
vn 0.000000 -1.000000 0.000000
vn 0.000000 -1.000000 0.000000
vn 0.891317 0.000000 -0.453381
vn 0.891317 0.000000 -0.453381
vn 0.891317 0.000000 -0.453381
vn 0.891317 0.000000 -0.453381
vn -0.891316 0.000000 0.453382
vn -0.891316 0.000000 0.453382
vn -0.891316 0.000000 0.453382
vn -0.891316 0.000000 0.453382
vn 0.000000 0.000000 -1.000000
vn 0.000000 0.000000 -1.000000
vn 0.000000 0.000000 -1.000000
vn 0.000000 0.000000 -1.000000
vn 0.000000 0.000000 1.000000
vn 0.000000 0.000000 1.000000
vn 0.000000 0.000000 1.000000
vn 0.000000 0.000000 1.000000
vn 1.000000 0.000000 0.000000
vn 1.000000 0.000000 0.000000
vn 1.000000 0.000000 0.000000
vn 1.000000 0.000000 0.000000
vn -1.000000 0.000000 0.000000
vn -1.000000 0.000000 0.000000
vn -1.000000 0.000000 0.000000
vn -1.000000 0.000000 0.000000
vn 0.000000 1.000000 0.000000
vn 0.000000 1.000000 0.000000
vn 0.000000 1.000000 0.000000
vn 0.000000 1.000000 0.000000
vn 0.000000 0.000311 1.000000
vn 0.000000 0.000311 1.000000
vn 0.000000 0.000311 1.000000
vn 0.000000 0.000311 1.000000
vn 0.000000 0.000309 -1.000000
vn 0.000000 0.000309 -1.000000
vn 0.000000 0.000309 -1.000000
vn 0.000000 0.000309 -1.000000
vn 1.000000 0.000336 0.000000
vn 1.000000 0.000336 0.000000
vn 1.000000 0.000336 0.000000
vn 1.000000 0.000336 0.000000
vn -1.000000 0.000331 0.000000
vn -1.000000 0.000331 0.000000
vn -1.000000 0.000331 0.000000
vn -1.000000 0.000331 0.000000
vn -0.003730 0.999990 0.002585
vn -0.000078 0.999978 0.006607
vn 0.000078 0.999978 0.006607
vn 0.003730 0.999990 0.002585
vn -0.000078 0.999978 -0.006607
vn -0.006074 0.999982 -0.000054
vn -0.003730 0.999990 -0.002585
vn 0.676217 0.000452 0.736702
vn 0.676217 0.000452 0.736702
vn 0.676217 0.000452 0.736702
vn 0.676217 0.000452 0.736702
vn -0.676228 0.000450 0.736692
vn -0.676228 0.000450 0.736692
vn -0.676228 0.000450 0.736692
vn -0.676228 0.000450 0.736692
vn 0.676206 0.000450 -0.736712
vn 0.676206 0.000450 -0.736712
vn 0.676206 0.000450 -0.736712
vn 0.676206 0.000450 -0.736712
vn -0.676217 0.000447 -0.736703
vn -0.676217 0.000447 -0.736703
vn -0.676217 0.000447 -0.736703
vn -0.676217 0.000447 -0.736703
vn 0.000078 0.999978 0.006607
vn 0.006075 0.999982 0.000054
vn 0.003730 0.999990 0.002585
vn -0.003730 0.999990 0.002585
vn -0.006074 0.999982 0.000054
vn -0.000078 0.999978 0.006607
vn 0.006075 0.999982 -0.000054
vn 0.000078 0.999978 -0.006607
vn 0.003730 0.999990 -0.002585
vn -0.003730 0.999990 -0.002585
vn -0.006074 0.999982 -0.000054
vn -0.006074 0.999982 0.000054
vn -0.003730 0.999990 0.002585
vn 0.003730 0.999990 0.002585
vn 0.006075 0.999982 0.000054
vn 0.006075 0.999982 -0.000054
vn 0.003730 0.999990 -0.002585
vn 0.003730 0.999990 -0.002585
vn 0.000078 0.999978 -0.006607
vn -0.000078 0.999978 -0.006607
vn -0.003730 0.999990 -0.002585
s off
g setdress_box_pCube73
usemtl setdress_box_initialShadingGroup
f 1/1/1 2/2/2 4/3/3 3/4/4
f 3/4/5 4/3/6 6/5/7 5/6/8
f 5/6/9 6/5/10 8/7/11 7/8/12
f 7/8/13 8/7/14 2/9/15 1/10/16
f 2/2/17 8/11/18 6/12/19 4/3/20
f 7/13/21 1/1/22 3/4/23 5/14/24
f 9/15/25 10/16/26 14/17/27 13/18/28
f 12/19/29 11/20/30 15/21/31 16/22/32
f 11/23/33 9/24/34 13/18/35 15/21/36
f 10/25/37 12/26/38 16/22/39 14/17/40
f 13/18/41 14/17/42 16/22/43 15/21/44
f 23/27/45 21/28/46 18/29/47 19/30/48
f 30/31/49 31/32/50 28/33/51 25/34/52
f 20/35/53 17/36/54 26/37/55 27/38/56
f 32/39/57 29/40/58 22/41/59 24/42/60
f 9/43/61 23/44/62 19/45/63 10/46/64
f 31/47/65 32/48/66 11/49/67
f 18/29/68 17/36/69 20/35/70 19/30/71
f 22/41/72 21/28/73 23/27/74 24/42/75
f 26/37/76 25/34/77 28/33/78 27/38/79
f 30/31/80 29/50/81 32/51/82 31/32/83
f 19/45/84 20/52/85 10/46/86
f 9/43/87 24/53/88 23/44/89
f 27/54/90 28/55/91 12/56/92
f 11/49/93 32/48/94 24/53/95 9/43/96
f 10/46/97 20/52/98 27/54/99 12/56/100
f 12/56/101 28/55/102 31/47/103 11/49/104
