# This file uses centimeters as units for non-parametric coordinates.

mtllib support_partial_arch_01.mtl
g default
v -0.058459 -0.777382 -0.054502
v 0.051486 -0.777382 -0.054502
v -0.044901 -0.005424 1.000000
v -0.058459 -0.039364 1.000000
v -0.058459 -0.039364 0.621029
v -0.044901 -0.005424 0.613979
v -0.044901 -0.636593 -0.054502
v -0.058459 -0.679996 -0.054502
v 0.037929 -0.636593 -0.054502
v 0.051486 -0.679996 -0.054502
v 0.037929 -0.005424 0.613979
v 0.051486 -0.039364 0.621029
v 0.051486 -0.039364 1.000000
v 0.037929 -0.005424 1.000000
v -0.050150 -0.130482 0.633010
v -0.058459 -0.103106 0.627318
v -0.051430 -0.124234 0.893158
v -0.058459 -0.764999 0.010411
v -0.050030 -0.741761 0.058766
v 0.051486 -0.764999 0.010411
v 0.043058 -0.741761 0.058766
v 0.043177 -0.130482 0.633010
v 0.051486 -0.103106 0.627318
v 0.044458 -0.124234 0.893158
v -0.058459 -0.464714 0.056212
v 0.051486 -0.444402 0.067406
v -0.049819 -0.519113 0.159565
v -0.058191 -0.505112 0.135264
v 0.043388 -0.501573 0.168571
v 0.051754 -0.484618 0.146190
v -0.044901 -0.005424 0.037399
v 0.037929 -0.005424 0.045617
v -0.044901 -0.005424 -0.054502
v 0.037929 -0.005424 -0.054502
v -0.044901 -0.081908 -0.054502
v 0.037929 -0.081908 -0.054502
v -0.045302 -0.005424 0.613979
v 0.037528 -0.005424 0.613979
v -0.033869 -0.446766 0.038497
v -0.044901 -0.469674 0.026311
v -0.033588 -0.081908 0.038525
v -0.044901 -0.070539 0.026030
v -0.044894 -0.071721 0.393589
v 0.026897 -0.435432 0.044519
v 0.037929 -0.454217 0.034529
v 0.037929 -0.083752 0.032376
v 0.024758 -0.081908 0.044308
v 0.037915 -0.078165 0.372152
v -0.058459 -0.070173 0.982151
v -0.055117 -0.112042 0.930467
v -0.058459 -0.101186 0.931044
v 0.051486 -0.070173 0.982151
v 0.051486 -0.101186 0.931044
v 0.048144 -0.112042 0.930467
v -0.058445 -0.181842 0.213049
v -0.058459 -0.149647 0.249839
v -0.044887 -0.119971 0.233178
v -0.044641 -0.150393 0.196101
v 0.037640 -0.150393 0.196101
v 0.037915 -0.119971 0.233178
v 0.051486 -0.149647 0.249839
v 0.051500 -0.181926 0.213092
v -0.050150 -0.250326 0.303611
v -0.058459 -0.226904 0.288119
v 0.043114 -0.250326 0.303611
v 0.051486 -0.226897 0.288126
vt 0.309879 0.690387
vt 0.300660 0.542145
vt 0.313488 0.540010
vt 0.322761 0.690329
vt 0.299541 0.463793
vt 0.310573 0.408267
vt 0.340954 0.533906
vt 0.350201 0.665986
vt 0.339432 0.684029
vt 0.298970 0.409392
vt 0.340308 0.404218
vt 0.351180 0.532309
vt 0.358627 0.652252
vt 0.354256 0.665822
vt 0.297477 0.398587
vt 0.309868 0.394888
vt 0.350875 0.403299
vt 0.293722 0.278224
vt 0.306497 0.277334
vt 0.342259 0.283682
vt 0.354453 0.285431
vt 0.294996 0.268357
vt 0.310174 0.172233
vt 0.332862 0.137795
vt 0.353244 0.157088
vt 0.365066 0.176502
vt 0.462788 0.535080
vt 0.476829 0.542310
vt 0.424605 0.297089
vt 0.474539 0.575921
vt 0.503907 0.289007
vt 0.505004 0.574581
vt 0.253196 0.189985
vt 0.512283 0.369766
vt 0.242323 0.280584
vt 0.245693 0.174284
vt 0.550016 0.529422
vt 0.839372 0.578284
vt 0.507980 0.377805
vt 0.206870 0.279657
vt 0.207515 0.154756
vt 0.228857 0.139055
vt 0.872836 0.540880
vt 0.872940 0.583958
vt 0.507671 0.529310
vt 0.258622 0.409558
vt 0.244419 0.406727
vt 0.195843 0.277393
vt 0.194041 0.171522
vt 0.210449 0.417869
vt 0.258453 0.428246
vt 0.244807 0.425645
vt 0.198964 0.416853
vt 0.256838 0.477504
vt 0.217071 0.567055
vt 0.206304 0.566891
vt 0.241188 0.570784
vt 0.253650 0.572075
vt 0.218172 0.688548
vt 0.213852 0.687971
vt 0.210170 0.672671
vt 0.240678 0.718081
vt 0.228935 0.709964
vt 0.254242 0.719165
vt 0.873043 0.827706
vt 0.841869 0.724069
vt 0.848280 0.376229
vt 0.889374 0.376229
vt 0.890953 0.392218
vt 0.846700 0.392218
vt 0.848828 0.264741
vt 0.888825 0.264741
vt 0.892385 0.414368
vt 0.845268 0.414368
vt 0.848828 0.123575
vt 0.888798 0.123575
vt 0.552570 0.606274
vt 0.599688 0.606274
vt 0.596076 0.626997
vt 0.556183 0.626997
vt 0.552570 0.578455
vt 0.599688 0.578455
vt 0.719611 0.578455
vt 0.719605 0.724069
vt 0.713967 0.583569
vt 0.684117 0.733256
vt 0.688962 0.581091
vt 0.639736 0.587642
vt 0.639736 0.647201
vt 0.604250 0.647201
vt 0.604247 0.578455
vt 0.639618 0.663090
vt 0.604356 0.663090
vt 0.877602 0.417334
vt 0.913100 0.417334
vt 0.913272 0.660910
vt 0.877774 0.664432
vt 0.913272 0.703817
vt 0.877774 0.703817
vt 0.754772 0.578456
vt 0.790270 0.578456
vt 0.790270 0.743888
vt 0.754772 0.743888
vt 0.794880 0.578455
vt 0.834774 0.578455
vt 0.834915 0.681390
vt 0.794971 0.673873
vt 0.834798 0.789064
vt 0.794829 0.789064
vt 0.520262 0.578455
vt 0.533466 0.578455
vt 0.548011 0.584265
vt 0.548011 0.619763
vt 0.533466 0.625573
vt 0.520262 0.625573
vt 0.749296 0.734818
vt 0.724291 0.734818
vt 0.724171 0.578455
vt 0.750213 0.583313
vt 0.644295 0.578455
vt 0.679557 0.578455
vt 0.674954 0.700611
vt 0.648912 0.705468
vt 0.298065 0.187166
vt 0.458730 0.368867
vt 0.463883 0.378721
vt 0.475495 0.383456
vt 0.252153 0.279873
vt 0.252519 0.271350
vt 0.550644 0.291708
vt 0.471129 0.535622
vt 0.457399 0.539914
vt 0.503650 0.537040
vt 0.840059 0.540880
vt 0.512786 0.528533
vt 0.422922 0.534798
vn -0.928647 0.370966 0.000000
vn -0.928646 0.370966 0.000000
vn -0.928646 0.370966 0.000000
vn -0.928647 0.370966 0.000000
vn 0.853885 0.234494 -0.464643
vn 0.853885 0.234494 -0.464643
vn 0.853885 0.234494 -0.464643
vn 0.853885 0.234494 -0.464643
vn 0.928656 0.370943 0.000000
vn 0.928656 0.370943 0.000000
vn 0.928656 0.370943 0.000000
vn 0.928656 0.370943 0.000000
vn -0.956332 -0.292277 0.002053
vn -0.956332 -0.292277 0.002053
vn -0.956332 -0.292277 0.002053
vn -0.956332 -0.292277 0.002053
vn -0.956332 -0.292277 0.002053
vn 0.000000 -0.950534 0.310620
vn 0.000000 -0.950534 0.310620
vn 0.000000 -0.950534 0.310620
vn 0.000000 -0.950534 0.310620
vn 0.000000 -0.901323 0.433147
vn 0.000000 -0.901323 0.433147
vn 0.000000 -0.901323 0.433147
vn 0.000000 -0.901323 0.433147
vn 0.964303 -0.113886 0.239059
vn 0.964303 -0.113886 0.239059
vn 0.964303 -0.113886 0.239059
vn 0.964303 -0.113886 0.239059
vn 0.956337 -0.292259 0.002052
vn 0.956337 -0.292259 0.002052
vn 0.956337 -0.292259 0.002052
vn 0.956337 -0.292259 0.002052
vn 0.956337 -0.292259 0.002052
vn 0.000000 -0.982287 0.187385
vn 0.000000 -0.982287 0.187385
vn 0.000000 -0.982287 0.187385
vn 0.000000 -0.982287 0.187385
vn -0.005007 -0.414158 0.910191
vn -0.005007 -0.414158 0.910191
vn -0.005007 -0.414158 0.910191
vn -0.005007 -0.414158 0.910191
vn 0.000000 -0.999712 0.024010
vn 0.000000 -0.999712 0.024010
vn 0.000000 -0.999712 0.024010
vn 0.000000 -0.999712 0.024010
vn 0.000000 -0.282693 0.959210
vn 0.000000 -0.282693 0.959210
vn 0.000000 -0.282693 0.959210
vn 0.000000 -0.282693 0.959210
vn 0.000000 -0.282693 0.959210
vn 0.000000 -0.282693 0.959210
vn 1.000000 -0.000000 0.000000
vn 1.000000 -0.000000 0.000000
vn 1.000000 -0.000000 0.000000
vn 1.000000 -0.000000 0.000000
vn 1.000000 -0.000000 0.000000
vn -0.999999 -0.000222 0.001455
vn -0.999999 -0.000222 0.001455
vn -0.999999 -0.000222 0.001455
vn -0.999999 -0.000222 0.001455
vn -0.999999 -0.000222 0.001455
vn -1.000000 0.000000 0.000000
vn -1.000000 0.000000 0.000000
vn -1.000000 0.000000 0.000000
vn -1.000000 0.000000 0.000000
vn -1.000000 0.000000 0.000000
vn -0.965224 -0.109955 0.237178
vn -0.965224 -0.109955 0.237178
vn -0.965224 -0.109955 0.237178
vn -0.965224 -0.109955 0.237178
vn 0.999999 0.000257 -0.001443
vn 0.999999 0.000257 -0.001443
vn 0.999999 0.000257 -0.001443
vn 0.999999 0.000257 -0.001443
vn 0.999999 0.000257 -0.001443
vn -0.851082 0.235221 -0.469394
vn -0.851082 0.235221 -0.469394
vn -0.851082 0.235221 -0.469394
vn -0.851082 0.235221 -0.469394
vn -0.741433 0.000495 0.671027
vn -0.741433 0.000495 0.671027
vn -0.741433 0.000495 0.671027
vn -0.741433 0.000495 0.671027
vn -0.707606 -0.706603 -0.002259
vn -0.707606 -0.706603 -0.002259
vn -0.707606 -0.706603 -0.002259
vn -1.000000 0.000000 0.000000
vn -1.000000 0.000000 0.000000
vn -1.000000 0.000000 0.000000
vn -1.000000 0.000000 0.000000
vn -1.000000 0.000000 0.000000
vn -1.000000 0.000000 0.000000
vn -1.000000 0.000000 0.000000
vn -1.000000 0.000000 0.000000
vn -0.999997 -0.002364 -0.000420
vn -0.999997 -0.002364 -0.000420
vn -0.999997 -0.002364 -0.000420
vn -0.999997 -0.002364 -0.000420
vn -0.712368 0.564718 -0.416685
vn -0.712368 0.564718 -0.416685
vn -0.712368 0.564718 -0.416685
vn 0.673371 0.004403 0.739292
vn 0.673371 0.004403 0.739292
vn 0.673371 0.004403 0.739292
vn 0.673371 0.004403 0.739292
vn -0.124128 -0.992132 0.016309
vn -0.124128 -0.992132 0.016309
vn -0.124128 -0.992132 0.016309
vn 1.000000 -0.000000 0.000000
vn 1.000000 -0.000000 0.000000
vn 1.000000 -0.000000 0.000000
vn 1.000000 -0.000000 0.000000
vn 1.000000 0.000000 0.000000
vn 1.000000 0.000000 0.000000
vn 1.000000 0.000000 0.000000
vn 1.000000 0.000000 0.000000
vn 0.999998 0.001809 0.000446
vn 0.999998 0.001809 0.000446
vn 0.999998 0.001809 0.000446
vn 0.999998 0.001809 0.000446
vn -0.098625 -0.000002 0.995125
vn -0.098625 -0.000002 0.995125
vn -0.098625 -0.000002 0.995125
vn -0.098625 -0.000002 0.995125
vn -0.043327 -0.998851 0.020492
vn -0.043327 -0.998851 0.020492
vn -0.043327 -0.998851 0.020492
vn -0.043327 -0.998851 0.020492
vn 0.644516 0.617957 -0.450253
vn 0.644516 0.617957 -0.450253
vn 0.644516 0.617957 -0.450253
vn 0.000000 -0.777027 0.629467
vn 0.000000 -0.777027 0.629467
vn 0.000000 -0.777027 0.629467
vn 0.000000 -0.777027 0.629467
vn -0.937221 -0.298137 0.180916
vn -0.937221 -0.298137 0.180916
vn -0.937221 -0.298137 0.180916
vn 0.937221 -0.298138 0.180917
vn 0.937221 -0.298138 0.180917
vn 0.937221 -0.298138 0.180917
vn -1.000000 -0.000132 -0.000265
vn -1.000000 -0.000132 -0.000265
vn -1.000000 -0.000132 -0.000265
vn -0.928147 0.282308 -0.242579
vn -0.928147 0.282308 -0.242580
vn -0.928147 0.282308 -0.242579
vn -0.928147 0.282308 -0.242579
vn 0.000000 0.773075 -0.634314
vn 0.000000 0.773075 -0.634314
vn 0.000000 0.773075 -0.634314
vn 0.000000 0.773075 -0.634315
vn 0.928035 0.282285 -0.243034
vn 0.928035 0.282285 -0.243034
vn 0.928036 0.282285 -0.243034
vn 0.928036 0.282285 -0.243034
vn 1.000000 0.000132 0.000265
vn 1.000000 0.000132 0.000265
vn 1.000000 0.000132 0.000265
vn -0.929006 0.354602 -0.105856
vn -0.929006 0.354602 -0.105856
vn -0.929006 0.354602 -0.105856
vn -0.929006 0.354602 -0.105856
vn -0.811956 0.266764 -0.519196
vn -0.811956 0.266764 -0.519196
vn -0.811956 0.266764 -0.519196
vn -0.811956 0.266764 -0.519196
vn 0.925722 0.362172 -0.108948
vn 0.925722 0.362172 -0.108948
vn 0.925722 0.362172 -0.108948
vn -0.000032 0.469523 -0.882920
vn -0.000032 0.469523 -0.882920
vn -0.000032 0.469523 -0.882920
vn -0.000032 0.469523 -0.882920
vn -0.957231 -0.271837 0.099059
vn -0.957231 -0.271837 0.099059
vn -0.957231 -0.271837 0.099059
vn -0.957231 -0.271837 0.099059
vn -0.953656 -0.144348 0.264016
vn -0.953656 -0.144348 0.264016
vn -0.953656 -0.144348 0.264016
vn -0.953656 -0.144348 0.264016
vn 0.956932 -0.272795 0.099317
vn 0.956932 -0.272795 0.099317
vn 0.956932 -0.272795 0.099316
vn 0.956932 -0.272795 0.099317
vn 0.000000 -0.939736 0.341901
vn 0.000000 -0.939736 0.341901
vn 0.000000 -0.939736 0.341901
vn 0.000000 -0.939736 0.341901
vn 0.999999 0.001073 -0.001057
vn 0.999999 0.001073 -0.001057
vn 0.999999 0.001073 -0.001057
vn 0.999999 0.001073 -0.001057
vn 1.000000 -0.000000 0.000000
vn 1.000000 -0.000000 0.000000
vn 1.000000 -0.000000 0.000000
vn 1.000000 -0.000000 0.000000
vn -1.000000 0.000000 0.000000
vn -1.000000 0.000000 0.000000
vn -1.000000 0.000000 0.000000
vn -1.000000 0.000000 0.000000
vn 0.952771 -0.144380 0.267175
vn 0.952771 -0.144380 0.267175
vn 0.952771 -0.144380 0.267175
vn 0.952771 -0.144380 0.267175
vn 0.001924 -0.472872 0.881129
vn 0.001924 -0.472872 0.881129
vn 0.001924 -0.472872 0.881129
vn 0.001924 -0.472872 0.881129
vn -0.999999 -0.001043 0.001070
vn -0.999999 -0.001043 0.001070
vn -0.999999 -0.001043 0.001070
vn -0.999999 -0.001043 0.001070
vn 0.814374 0.264470 -0.516576
vn 0.814374 0.264470 -0.516576
vn 0.814374 0.264470 -0.516576
vn 0.814374 0.264470 -0.516576
vn 0.928878 0.354900 -0.105981
vn 0.928878 0.354900 -0.105981
vn 0.928878 0.354900 -0.105981
vn 0.928878 0.354900 -0.105981
vn -0.925715 0.362181 -0.108981
vn -0.925715 0.362181 -0.108981
vn -0.925715 0.362181 -0.108981
vn -0.000025 0.957614 -0.288053
vn -0.000025 0.957614 -0.288054
vn -0.000025 0.957614 -0.288054
vn -0.000025 0.957614 -0.288054
vn 0.000000 1.000000 0.000000
vn 0.000000 1.000000 0.000000
vn 0.000000 1.000000 0.000000
vn 0.000000 1.000000 0.000000
vn 0.000000 1.000000 0.000000
vn 0.000000 1.000000 0.000000
vn 0.000000 1.000000 0.000000
vn 0.000000 1.000000 0.000000
vn 0.000000 1.000000 0.000000
vn 0.000000 1.000000 0.000000
vn 0.000000 1.000000 0.000000
vn 0.000000 1.000000 0.000000
s off
g support_partial_arch_01_support_partial_arch_01_support_partial_arch_01_support_small_support_01_support1
usemtl lambert2SG
f 3/1/1 6/2/2 5/3/3 4/4/4
f 9/33/5 45/129/6 26/35/7 10/36/8
f 11/58/9 14/64/10 13/62/11 12/57/12
f 15/12/13 17/13/14 50/14/15 51/8/16 16/7/17
f 17/67/18 24/68/19 54/69/20 50/70/21
f 18/77/22 20/78/23 21/79/24 19/80/25
f 20/41/26 30/40/27 29/48/28 21/49/29
f 23/55/30 53/59/31 54/60/32 24/61/33 22/56/34
f 1/81/35 2/82/36 20/78/37 18/77/38
f 19/104/39 21/105/40 29/106/41 27/107/42
f 15/71/43 22/72/44 24/68/45 17/67/46
f 52/110/47 13/111/48 14/112/49 3/113/50 4/114/51 49/115/52
f 12/57/53 13/62/54 52/63/55 53/59/56 23/55/57
f 8/23/58 1/24/59 18/25/60 28/20/61 25/19/62
f 5/3/63 16/7/64 51/8/65 49/9/66 4/4/67
f 28/20/68 18/25/69 19/26/70 27/21/71
f 30/40/72 20/41/73 2/42/74 10/36/75 26/35/76
f 40/22/77 7/124/78 8/23/79 25/19/80
f 39/126/81 41/27/82 42/132/83 40/125/84
f 41/131/85 43/127/86 42/28/87
f 42/132/88 35/136/89 7/29/90 40/125/91
f 42/28/92 31/133/93 33/32/94 35/30/95
f 42/28/96 43/127/97 37/31/98 31/133/99
f 39/18/100 40/22/101 25/19/102
f 45/34/103 46/135/104 47/45/105 44/39/106
f 46/83/107 48/84/108 47/85/109
f 9/130/110 36/37/111 46/135/112 45/34/113
f 36/134/114 34/43/115 32/44/116 46/38/117
f 32/44/118 38/65/119 48/66/120 46/38/121
f 47/116/122 41/117/123 39/118/124 44/119/125
f 47/85/126 48/84/127 43/86/128 41/87/129
f 44/128/130 26/35/131 45/129/132
f 50/70/133 54/69/134 52/73/135 49/74/136
f 49/9/137 51/8/138 50/14/139
f 52/63/140 54/60/141 53/59/142
f 55/16/143 64/11/144 56/6/145
f 56/6/146 57/10/147 58/15/148 55/16/149
f 57/90/150 60/89/151 59/92/152 58/93/153
f 60/51/154 61/52/155 62/47/156 59/46/157
f 61/52/158 66/50/159 62/47/160
f 6/2/161 43/5/162 56/6/163 5/3/164
f 58/15/165 39/18/166 25/19/167 55/16/168
f 60/51/169 48/54/170 61/52/171
f 58/120/172 59/121/173 44/122/174 39/123/175
f 16/7/176 64/11/177 63/17/178 15/12/179
f 64/11/180 28/20/181 27/21/182 63/17/183
f 66/50/184 23/55/185 22/56/186 65/53/187
f 63/75/188 65/76/189 22/72/190 15/71/191
f 62/47/192 66/50/193 30/40/194 26/35/195
f 61/52/196 12/57/197 23/55/198 66/50/199
f 56/6/200 64/11/201 16/7/202 5/3/203
f 30/40/204 66/50/205 65/53/206 29/48/207
f 29/106/208 65/108/209 63/109/210 27/107/211
f 28/20/212 64/11/213 55/16/214 25/19/215
f 44/128/216 59/46/217 62/47/218 26/35/219
f 48/54/220 11/58/221 12/57/222 61/52/223
f 43/5/224 57/10/225 56/6/226
f 48/88/227 60/89/228 57/90/229 43/91/230
f 37/94/231 38/95/232 32/96/233 31/97/234
f 3/100/235 14/101/236 11/102/237 6/103/238
f 31/97/239 32/96/240 34/98/241 33/99/242
