# This file uses centimeters as units for non-parametric coordinates.

mtllib stairs_walkway_support_01.mtl
g default
v -0.064600 -3.000000 0.064600
v 0.064600 -3.000000 0.064600
v -0.064600 0.000000 0.064600
v 0.064600 0.000000 0.064600
v -0.064600 0.000000 -0.064600
v 0.064600 0.000000 -0.064600
v -0.064600 -3.000000 -0.064600
v 0.064600 -3.000000 -0.064600
v -0.058310 -0.363050 0.064600
v 0.070900 -0.363050 0.064600
v 0.070900 -0.363050 -0.064600
v -0.058310 -0.363050 -0.064600
v -0.068420 -1.048780 0.078880
v 0.060790 -1.048780 0.078880
v 0.060790 -1.048780 -0.050330
v -0.068420 -1.048780 -0.050330
v -0.083500 -1.960920 0.064600
v 0.045710 -1.960920 0.064600
v 0.045710 -1.960920 -0.064600
v -0.083500 -1.960920 -0.064600
v 0.064600 -1.515480 -0.048970
v 0.064600 -1.515480 0.080230
v -0.064600 -1.515480 0.080230
v -0.064600 -1.515480 -0.048970
vt 0.505204 0.503680
vt 0.528689 0.503680
vt 0.528711 0.568755
vt 0.505182 0.568755
vt 0.602599 0.020421
vt 0.634653 0.020421
vt 0.634675 0.111514
vt 0.602575 0.111514
vt 0.551847 0.503669
vt 0.551870 0.568742
vt 0.482046 0.503669
vt 0.482024 0.568742
vt 0.505245 0.383828
vt 0.528648 0.383826
vt 0.551805 0.383818
vt 0.634718 0.279285
vt 0.602534 0.279285
vt 0.482087 0.383818
vt 0.505304 0.217265
vt 0.528589 0.217265
vt 0.528617 0.297109
vt 0.505276 0.297109
vt 0.551750 0.217258
vt 0.551776 0.297100
vt 0.602505 0.400672
vt 0.634747 0.400672
vt 0.634775 0.512438
vt 0.602477 0.512438
vt 0.482143 0.217258
vt 0.482117 0.297100
vt 0.505367 0.031012
vt 0.528525 0.031012
vt 0.551685 0.031009
vt 0.634840 0.773155
vt 0.602412 0.773155
vt 0.482208 0.031009
vn 0.000000 0.013556 0.999908
vn 0.000000 0.013675 0.999906
vn 0.000000 0.000000 1.000000
vn 0.000000 0.000000 1.000000
vn 0.000000 0.000000 -1.000000
vn 0.000000 0.000000 -1.000000
vn 0.000000 -0.013675 -0.999906
vn 0.000000 -0.013556 -0.999908
vn 0.999991 -0.004290 0.000000
vn 0.999996 -0.002904 0.000000
vn 0.999850 0.017342 0.000000
vn 0.999850 0.017342 0.000000
vn -0.999996 0.002904 0.000000
vn -0.999991 0.004290 0.000000
vn -0.999850 -0.017342 0.000000
vn -0.999850 -0.017342 0.000000
vn 0.000000 0.013427 0.999910
vn 0.000000 0.013682 0.999906
vn 0.000000 0.013675 0.999906
vn 0.000000 0.013556 0.999908
vn 0.999988 -0.004832 0.000000
vn 0.999982 -0.006034 0.000000
vn 0.999996 -0.002904 0.000000
vn 0.999991 -0.004290 0.000000
vn 0.000000 -0.013556 -0.999908
vn 0.000000 -0.013675 -0.999906
vn 0.000000 -0.013682 -0.999906
vn 0.000000 -0.013427 -0.999910
vn -0.999982 0.006034 0.000000
vn -0.999988 0.004832 0.000000
vn -0.999991 0.004290 0.000000
vn -0.999996 0.002904 0.000000
vn 0.000000 -0.009687 0.999953
vn 0.000000 -0.011197 0.999937
vn 0.000000 -0.014083 0.999901
vn 0.000000 -0.016907 0.999857
vn 0.999998 -0.001852 0.000000
vn 0.999998 0.002029 0.000000
vn 0.999835 -0.018147 0.000000
vn 0.999893 -0.014616 0.000000
vn 0.000000 0.016907 -0.999857
vn 0.000000 0.014083 -0.999901
vn 0.000000 0.011197 -0.999937
vn 0.000000 0.009687 -0.999953
vn -0.999998 -0.002029 0.000000
vn -0.999998 0.001852 0.000000
vn -0.999893 0.014616 0.000000
vn -0.999835 0.018147 0.000000
vn 0.000000 0.000000 1.000000
vn 0.000000 0.000000 1.000000
vn 0.000000 -0.011197 0.999937
vn 0.000000 -0.009687 0.999953
vn 0.999835 0.018179 0.000000
vn 0.999835 0.018179 0.000000
vn 0.999998 0.002029 0.000000
vn 0.999998 -0.001852 0.000000
vn 0.000000 0.009687 -0.999953
vn 0.000000 0.011197 -0.999937
vn 0.000000 0.000000 -1.000000
vn 0.000000 0.000000 -1.000000
vn -0.999835 -0.018179 0.000000
vn -0.999835 -0.018179 0.000000
vn -0.999998 0.001852 0.000000
vn -0.999998 -0.002029 0.000000
vn 0.999893 -0.014616 0.000000
vn 0.999835 -0.018147 0.000000
vn 0.999982 -0.006034 0.000000
vn 0.999988 -0.004832 0.000000
vn 0.000000 -0.016907 0.999857
vn 0.000000 -0.014083 0.999901
vn 0.000000 0.013682 0.999906
vn 0.000000 0.013427 0.999910
vn -0.999835 0.018147 0.000000
vn -0.999893 0.014616 0.000000
vn -0.999988 0.004832 0.000000
vn -0.999982 0.006034 0.000000
vn 0.000000 -0.013427 -0.999910
vn 0.000000 -0.013682 -0.999906
vn 0.000000 0.014083 -0.999901
vn 0.000000 0.016907 -0.999857
s off
g stairs_walkway_support_01_stairs_floor_support_pCube71
usemtl lambert2SG
f 9/1/1 10/2/2 4/3/3 3/4/4
f 5/5/5 6/6/6 11/7/7 12/8/8
f 10/2/9 11/9/10 6/10/11 4/3/12
f 12/11/13 9/1/14 3/4/15 5/12/16
f 13/13/17 14/14/18 10/2/19 9/1/20
f 14/14/21 15/15/22 11/9/23 10/2/24
f 12/8/25 11/7/26 15/16/27 16/17/28
f 16/18/29 13/13/30 9/1/31 12/11/32
f 17/19/33 18/20/34 22/21/35 23/22/36
f 18/20/37 19/23/38 21/24/39 22/21/40
f 24/25/41 21/26/42 19/27/43 20/28/44
f 20/29/45 17/19/46 23/22/47 24/30/48
f 1/31/49 2/32/50 18/20/51 17/19/52
f 2/32/53 8/33/54 19/23/55 18/20/56
f 20/28/57 19/27/58 8/34/59 7/35/60
f 7/36/61 1/31/62 17/19/63 20/29/64
f 22/21/65 21/24/66 15/15/67 14/14/68
f 23/22/69 22/21/70 14/14/71 13/13/72
f 24/30/73 23/22/74 13/13/75 16/18/76
f 16/17/77 15/16/78 21/26/79 24/25/80
