# This file uses centimeters as units for non-parametric coordinates.

mtllib stairs_body_step_01.mtl
g stairs_body_step_01_stairs_body_step_01_stairs_body_step_01_step_01_default1
v 0.459402 0.046980 0.104432
v 0.460028 -0.012140 0.109976
v 0.466182 -0.011970 -0.137952
v 0.464425 0.047400 -0.141392
v 0.370456 0.046780 0.100848
v 0.370769 -0.012190 0.103952
v 0.382803 -0.011920 -0.140376
v 0.380760 0.047490 -0.141360
v 0.281327 0.052840 0.097672
v 0.283029 -0.011770 0.097480
v 0.302340 -0.011470 -0.136856
v 0.297620 0.053520 -0.137408
v 0.192087 0.047040 0.098680
v 0.193301 -0.017420 0.095360
v 0.218463 -0.017090 -0.129008
v 0.212152 0.047810 -0.126200
v 0.102203 0.048330 0.101912
v 0.104898 -0.011250 0.098472
v 0.133722 -0.016840 -0.119224
v 0.127052 0.048820 -0.116248
v 0.011261 0.037750 0.106224
v 0.016174 -0.022180 0.102896
v 0.045752 -0.010920 -0.113384
v 0.038824 0.038410 -0.110112
v -0.080040 0.038710 0.110024
v -0.075918 -0.021810 0.107104
v -0.050600 -0.010690 -0.114152
v -0.054777 0.038990 -0.110752
v -0.172610 0.039530 0.113664
v -0.169961 -0.025250 0.112672
v -0.152766 -0.013960 -0.113448
v -0.155149 0.038730 -0.111176
v -0.266404 0.039470 0.122184
v -0.263000 -0.018060 0.122816
v -0.257582 -0.008880 -0.111480
v -0.258354 0.050660 -0.110600
v -0.359784 0.039840 0.133816
v -0.357346 -0.013350 0.134496
v -0.356647 -0.001510 -0.112472
v -0.358542 0.051070 -0.111744
v -0.452088 0.050990 0.141024
v -0.451499 -0.009150 0.141888
v -0.452290 -0.008360 -0.109760
v -0.454719 0.050990 -0.112592
v -0.183595 -0.025220 0.114152
v -0.262954 -0.025220 0.112336
v -0.257885 -0.013900 -0.104368
v -0.357622 -0.025220 0.119248
v -0.356951 -0.010120 -0.100064
vt 0.238571 0.023944
vt 0.238460 0.089139
vt 0.222780 0.090609
vt 0.222826 0.024857
vt 0.221060 0.024173
vt 0.221060 0.091435
vt 0.205320 0.090684
vt 0.205110 0.023944
vt 0.040420 0.048866
vt 0.039469 0.025276
vt 0.104664 0.023944
vt 0.104656 0.046133
vt 0.041262 0.072504
vt 0.103607 0.068182
vt 0.040995 0.096171
vt 0.100635 0.090849
vt 0.040138 0.120009
vt 0.097996 0.113419
vt 0.038994 0.144127
vt 0.096368 0.136817
vt 0.037986 0.168341
vt 0.096538 0.161641
vt 0.037021 0.192892
vt 0.096651 0.188261
vt 0.034761 0.217767
vt 0.096498 0.215632
vt 0.031676 0.242532
vt 0.096801 0.242202
vt 0.029765 0.267012
vt 0.097026 0.267709
vt 0.172732 0.025576
vt 0.171135 0.049249
vt 0.106337 0.046057
vt 0.106980 0.023944
vt 0.169418 0.072518
vt 0.107270 0.067397
vt 0.168856 0.096315
vt 0.109352 0.089642
vt 0.169681 0.119760
vt 0.111946 0.112116
vt 0.170855 0.143290
vt 0.113495 0.135446
vt 0.171971 0.167714
vt 0.113292 0.160999
vt 0.173447 0.192655
vt 0.113478 0.188095
vt 0.173840 0.196271
vt 0.173358 0.217318
vt 0.115886 0.215973
vt 0.176138 0.217330
vt 0.117028 0.242246
vt 0.175191 0.242424
vt 0.114000 0.215893
vt 0.179235 0.242351
vt 0.113737 0.242166
vt 0.114456 0.267531
vt 0.181196 0.267321
vt 0.026360 0.160999
vt 0.027227 0.188095
vt 0.013253 0.188727
vt 0.013184 0.162107
vt 0.025880 0.215893
vt 0.010089 0.216098
vt 0.026421 0.135446
vt 0.013338 0.137283
vt 0.023925 0.242166
vt 0.009980 0.242668
vt 0.027991 0.112116
vt 0.010577 0.113885
vt 0.025742 0.267531
vt 0.010002 0.268175
vt 0.028057 0.089642
vt 0.010845 0.091315
vt 0.026566 0.067397
vt 0.009331 0.068648
vt 0.026686 0.046057
vt 0.010930 0.046599
vt 0.026699 0.023944
vt 0.010954 0.024410
vt 0.202065 0.024110
vt 0.202012 0.047700
vt 0.186372 0.047617
vt 0.186386 0.023944
vt 0.203619 0.071337
vt 0.186484 0.070886
vt 0.202081 0.095005
vt 0.184985 0.094683
vt 0.202423 0.118843
vt 0.186622 0.118128
vt 0.199617 0.142961
vt 0.183723 0.141658
vt 0.199871 0.167175
vt 0.183821 0.166082
vt 0.200089 0.191725
vt 0.182909 0.191023
vt 0.200073 0.216600
vt 0.184815 0.215698
vt 0.182917 0.194639
vt 0.200171 0.241365
vt 0.186065 0.240719
vt 0.203128 0.265845
vt 0.187178 0.265689
vn -0.000684 0.999997 0.002294
vn -0.000684 0.999997 0.002294
vn -0.000684 0.999997 0.002294
vn -0.000684 0.999997 0.002294
vn 0.070038 0.997521 0.006808
vn 0.070038 0.997521 0.006808
vn 0.070038 0.997521 0.006808
vn 0.070038 0.997521 0.006808
vn -0.065882 0.997825 -0.002062
vn -0.065882 0.997825 -0.002062
vn -0.065882 0.997825 -0.002062
vn -0.065882 0.997825 -0.002062
vn 0.013460 0.999901 0.004208
vn 0.013460 0.999901 0.004208
vn 0.013460 0.999901 0.004208
vn 0.013460 0.999901 0.004208
vn -0.117009 0.993064 -0.011486
vn -0.117009 0.993065 -0.011486
vn -0.117009 0.993065 -0.011486
vn -0.117009 0.993065 -0.011486
vn 0.008382 0.999960 0.003163
vn 0.008382 0.999960 0.003163
vn 0.008382 0.999960 0.003163
vn 0.008382 0.999960 0.003163
vn 0.002888 0.999995 -0.000890
vn 0.002888 0.999995 -0.000890
vn 0.002888 0.999995 -0.000890
vn 0.002888 0.999995 -0.000890
vn -0.002342 0.055172 -0.998474
vn -0.002342 0.055172 -0.998474
vn -0.002342 0.055172 -0.998474
vn -0.002342 0.055172 -0.998474
vn 0.061324 0.997777 0.026072
vn 0.061324 0.997777 0.026072
vn 0.061324 0.997777 0.026072
vn 0.061324 0.997777 0.026072
vn -0.009952 0.027793 -0.999564
vn -0.009952 0.027793 -0.999564
vn -0.009952 0.027793 -0.999564
vn -0.009952 0.027793 -0.999564
vn 0.006569 0.998876 0.046945
vn 0.006569 0.998876 0.046945
vn 0.006569 0.998876 0.046945
vn 0.006569 0.998876 0.046945
vn 0.038405 -0.803543 0.594006
vn 0.038405 -0.803543 0.594006
vn 0.038405 -0.803543 0.594006
vn 0.038405 -0.803543 0.594006
vn 0.011289 0.014608 -0.999830
vn 0.011289 0.014608 -0.999830
vn 0.011289 0.014608 -0.999830
vn 0.011289 0.014608 -0.999830
vn 0.059367 0.997988 0.022287
vn 0.059367 0.997987 0.022287
vn 0.059367 0.997988 0.022287
vn 0.059367 0.997987 0.022287
vn 0.013010 -0.789138 0.614079
vn 0.013010 -0.789138 0.614078
vn 0.013010 -0.789138 0.614078
vn -0.009024 -0.019142 -0.999776
vn -0.009024 -0.019142 -0.999776
vn -0.009024 -0.019142 -0.999776
vn -0.009024 -0.019142 -0.999776
vn -0.053797 0.072505 0.995916
vn -0.053797 0.072505 0.995916
vn -0.053797 0.072505 0.995916
vn -0.053797 0.072505 0.995916
vn -0.053626 0.022649 0.998304
vn -0.053626 0.022649 0.998304
vn -0.053627 0.022649 0.998304
vn -0.053626 0.022649 0.998304
vn -0.004464 -0.027300 0.999617
vn -0.004464 -0.027300 0.999617
vn -0.004464 -0.027300 0.999617
vn -0.004464 -0.027300 0.999617
vn 0.033281 -0.053342 0.998022
vn 0.033281 -0.053342 0.998022
vn 0.033281 -0.053342 0.998022
vn 0.033281 -0.053342 0.998022
vn 0.054825 -0.052976 0.997090
vn 0.054825 -0.052976 0.997090
vn 0.054825 -0.052976 0.997090
vn 0.054825 -0.052976 0.997090
vn 0.043222 -0.048520 0.997887
vn 0.043222 -0.048520 0.997887
vn 0.043222 -0.048520 0.997887
vn 0.043222 -0.048520 0.997887
vn 0.049662 -0.028486 0.998360
vn 0.049662 -0.028486 0.998360
vn 0.049662 -0.028486 0.998360
vn 0.049662 -0.028486 0.998360
vn 0.099547 0.001925 0.995031
vn 0.099547 0.001925 0.995031
vn 0.099547 0.001925 0.995031
vn 0.099547 0.001925 0.995031
vn 0.099547 0.001925 0.995031
vn 0.123701 0.018284 0.992151
vn 0.123701 0.018284 0.992151
vn 0.123701 0.018284 0.992151
vn 0.123701 0.018284 0.992151
vn 0.079338 0.015698 0.996724
vn 0.079338 0.015698 0.996724
vn 0.079338 0.015698 0.996724
vn 0.079338 0.015698 0.996724
vn 0.014278 -0.036760 -0.999222
vn 0.014278 -0.036760 -0.999222
vn 0.014278 -0.036760 -0.999222
vn 0.014278 -0.036760 -0.999222
vn -0.046206 -0.014845 -0.998822
vn -0.046206 -0.014845 -0.998822
vn -0.046206 -0.014845 -0.998822
vn -0.046206 -0.014845 -0.998822
vn -0.112329 0.007718 -0.993641
vn -0.112329 0.007718 -0.993641
vn -0.112329 0.007718 -0.993641
vn -0.112329 0.007718 -0.993641
vn -0.115127 0.032537 -0.992818
vn -0.115127 0.032537 -0.992818
vn -0.115127 0.032537 -0.992818
vn -0.115127 0.032537 -0.992818
vn -0.068908 0.046000 -0.996562
vn -0.068908 0.046000 -0.996562
vn -0.068908 0.046000 -0.996562
vn -0.068908 0.046000 -0.996562
vn 0.007685 0.068091 -0.997650
vn 0.007685 0.068091 -0.997650
vn 0.007685 0.068091 -0.997650
vn 0.007685 0.068091 -0.997650
vn -0.012907 -0.825651 0.564034
vn -0.012907 -0.825651 0.564034
vn -0.012907 -0.825651 0.564034
vn -0.050337 -0.814933 -0.577365
vn -0.050337 -0.814933 -0.577365
vn -0.050337 -0.814933 -0.577365
vn -0.055598 -0.817822 -0.572780
vn -0.055598 -0.817822 -0.572780
vn -0.055598 -0.817822 -0.572780
vn -0.055598 -0.817822 -0.572780
vn 0.042693 -0.821317 -0.568872
vn 0.042693 -0.821317 -0.568872
vn 0.042693 -0.821317 -0.568872
vn 0.000044 -1.000000 -0.000892
vn 0.000044 -1.000000 -0.000892
vn 0.000044 -1.000000 -0.000892
vn 0.000044 -1.000000 -0.000892
vn -0.005145 -0.999986 -0.001528
vn -0.005145 -0.999986 -0.001528
vn -0.005145 -0.999986 -0.001528
vn -0.005145 -0.999986 -0.001528
vn 0.064942 -0.997877 0.004926
vn 0.064942 -0.997877 0.004926
vn 0.064942 -0.997877 0.004926
vn 0.064942 -0.997877 0.004926
vn -0.036500 -0.999306 0.007433
vn -0.036500 -0.999306 0.007433
vn -0.036500 -0.999306 0.007433
vn -0.036500 -0.999306 0.007433
vn 0.027801 -0.999570 -0.009318
vn 0.027801 -0.999570 -0.009318
vn 0.027801 -0.999570 -0.009318
vn 0.027801 -0.999570 -0.009318
vn -0.004122 -0.998659 -0.051599
vn -0.004122 -0.998659 -0.051599
vn -0.004122 -0.998659 -0.051599
vn -0.004122 -0.998659 -0.051599
vn 0.032643 -0.998366 -0.046908
vn 0.032643 -0.998366 -0.046908
vn 0.032643 -0.998366 -0.046908
vn 0.032643 -0.998366 -0.046908
vn -0.002703 -0.998700 -0.050909
vn -0.002703 -0.998700 -0.050909
vn -0.002703 -0.998700 -0.050909
vn -0.002703 -0.998700 -0.050909
vn -0.002703 -0.998700 -0.050909
vn -0.022988 -0.997887 -0.060769
vn -0.022988 -0.997887 -0.060769
vn -0.022988 -0.997887 -0.060769
vn -0.022988 -0.997887 -0.060769
vn -0.096037 -0.994813 -0.033540
vn -0.096037 -0.994813 -0.033540
vn -0.096037 -0.994813 -0.033540
vn -0.096037 -0.994813 -0.033540
vn 0.999505 0.021819 0.022652
vn 0.999505 0.021819 0.022652
vn 0.999505 0.021819 0.022652
vn 0.999505 0.021819 0.022652
vn -0.999664 -0.025040 0.006731
vn -0.999664 -0.025040 0.006731
vn -0.999664 -0.025040 0.006731
vn -0.999664 -0.025040 0.006731
s off
g stairs_body_step_01_stairs_body_step_01_polySurface1 stairs_body_step_01_stairs_body_step_01_stairs_body_step_01_polySurface1 stairs_body_step_01_stairs_body_step_01_stairs_body_step_01_step_01_below_plane stairs_body_step_01_stairs_body_step_01_stairs_body_step_01_step_01_group1 stairs_body_step_01_stairs_body_step_01_stairs_body_step_01_step_01_group2 stairs_body_step_01_stairs_body_step_01_stairs_body_step_01_step_01_polySurface1 stairs_body_step_01_stairs_body_step_01_stairs_body_step_01_step_01_polySurface2 stairs_body_step_01_stairs_body_step_01_stairs_body_step_01_step_01_steps stairs_body_step_01_polySurface1
usemtl lambert2SG
f 5/9/1 1/10/2 4/11/3 8/12/4
f 9/13/5 5/9/6 8/12/7 12/14/8
f 13/15/9 9/13/10 12/14/11 16/16/12
f 17/17/13 13/15/14 16/16/15 20/18/16
f 21/19/17 17/17/18 20/18/19 24/20/20
f 25/21/21 21/19/22 24/20/23 28/22/24
f 29/23/25 25/21/26 28/22/27 32/24/28
f 27/58/29 31/59/30 32/60/31 28/61/32
f 33/25/33 29/23/34 32/24/35 36/26/36
f 31/59/37 35/62/38 36/63/39 32/60/40
f 37/27/41 33/25/42 36/26/43 40/28/44
f 34/50/45 38/54/46 48/52/47 46/48/48
f 35/62/49 39/66/50 40/67/51 36/63/52
f 41/29/53 37/27/54 40/28/55 44/30/56
f 38/54/57 42/57/58 48/52/59
f 39/66/60 43/70/61 44/71/62 40/67/63
f 1/80/64 5/81/65 6/82/66 2/83/67
f 5/81/68 9/84/69 10/85/70 6/82/71
f 9/84/72 13/86/73 14/87/74 10/85/75
f 13/86/76 17/88/77 18/89/78 14/87/79
f 17/88/80 21/90/81 22/91/82 18/89/83
f 21/90/84 25/92/85 26/93/86 22/91/87
f 25/92/88 29/94/89 30/95/90 26/93/91
f 29/94/92 33/96/93 34/97/94 45/98/95 30/95/96
f 33/96/97 37/99/98 38/100/99 34/97/100
f 37/99/101 41/101/102 42/102/103 38/100/104
f 3/78/105 7/76/106 8/77/107 4/79/108
f 7/76/109 11/74/110 12/75/111 8/77/112
f 11/74/113 15/72/114 16/73/115 12/75/116
f 15/72/117 19/68/118 20/69/119 16/73/120
f 19/68/121 23/64/122 24/65/123 20/69/124
f 23/64/125 27/58/126 28/61/127 24/65/128
f 45/47/129 34/50/130 46/48/131
f 31/46/132 47/49/133 35/53/134
f 47/49/135 49/51/136 39/55/137 35/53/138
f 49/51/139 43/56/140 39/55/141
g stairs_body_step_01_stairs_body_step_01_polySurface1 stairs_body_step_01_stairs_body_step_01_stairs_body_step_01_polySurface1 stairs_body_step_01_stairs_body_step_01_stairs_body_step_01_step_01_above_plane stairs_body_step_01_stairs_body_step_01_stairs_body_step_01_step_01_group1 stairs_body_step_01_stairs_body_step_01_stairs_body_step_01_step_01_group2 stairs_body_step_01_stairs_body_step_01_stairs_body_step_01_step_01_polySurface1 stairs_body_step_01_stairs_body_step_01_stairs_body_step_01_step_01_polySurface2 stairs_body_step_01_stairs_body_step_01_stairs_body_step_01_step_01_steps stairs_body_step_01_polySurface1
f 2/31/142 6/32/143 7/33/144 3/34/145
f 7/33/146 6/32/147 10/35/148 11/36/149
f 11/36/150 10/35/151 14/37/152 15/38/153
f 15/38/154 14/37/155 18/39/156 19/40/157
f 19/40/158 18/39/159 22/41/160 23/42/161
f 23/42/162 22/41/163 26/43/164 27/44/165
f 27/44/166 26/43/167 30/45/168 31/46/169
f 31/46/170 30/45/171 45/47/172 46/48/173 47/49/174
f 49/51/175 47/49/176 46/48/177 48/52/178
f 43/56/179 49/51/180 48/52/181 42/57/182
g stairs_body_step_01_stairs_body_step_01_polySurface1 stairs_body_step_01_polySurface1
f 4/1/183 1/2/184 2/3/185 3/4/186
f 41/5/187 44/6/188 43/7/189 42/8/190
