# This file uses centimeters as units for non-parametric coordinates.

mtllib body_window_shutter_01.mtl
g body_window_shutter_01_default1
v -0.238930 0.313190 0.032920
v -0.203200 0.383320 0.032920
v -0.147550 0.438970 0.032920
v -0.077430 0.474700 0.032920
v -0.004680 0.487010 0.032920
v -0.251240 0.240270 0.032920
v -0.253950 -0.539620 0.032920
v -0.004680 0.232120 0.032920
v -0.004680 -0.540480 0.032920
v -0.004680 0.179580 0.032920
v -0.004680 0.011240 0.032920
v -0.054630 0.089190 0.032920
v -0.251340 0.240320 0.053140
v -0.004710 0.232170 0.053140
v -0.238970 0.313210 0.053140
v -0.203240 0.383340 0.053140
v -0.147580 0.439000 0.053140
v -0.077440 0.474740 0.053140
v -0.004680 0.487050 0.053140
v -0.254250 -0.539480 0.053140
v -0.005140 -0.540290 0.053140
v -0.004980 0.011380 0.053140
v -0.054740 0.089270 0.053140
v -0.004740 0.179650 0.053140
vt 0.271609 0.522277
vt 0.359590 0.518859
vt 0.276101 0.547743
vt 0.288760 0.572190
vt 0.308352 0.591530
vt 0.332963 0.603870
vt 0.360180 0.607999
vt 0.268820 0.249557
vt 0.357687 0.248694
vt 0.358994 0.441637
vt 0.340026 0.469005
vt 0.359460 0.500487
vt 0.458213 0.522078
vt 0.453960 0.547684
vt 0.369919 0.519449
vt 0.441484 0.572329
vt 0.422004 0.591913
vt 0.397424 0.604517
vt 0.370153 0.608909
vt 0.458445 0.248356
vt 0.369716 0.441928
vt 0.369209 0.248289
vt 0.369871 0.501010
vt 0.389070 0.469237
vt 0.468968 0.525940
vt 0.468968 0.325344
vt 0.482873 0.325358
vt 0.482873 0.525952
vt 0.468968 0.557089
vt 0.482873 0.557089
vt 0.468968 0.582703
vt 0.482873 0.582703
vt 0.468968 0.599147
vt 0.482873 0.599147
vt 0.468968 0.534955
vt 0.468968 0.547846
vt 0.482873 0.547850
vt 0.482873 0.534955
vt 0.349306 0.252655
vt 0.349681 0.343110
vt 0.342486 0.342975
vt 0.342112 0.252576
vt 0.468968 0.243698
vt 0.468968 0.269461
vt 0.482873 0.269461
vt 0.482873 0.243690
vt 0.468968 0.421295
vt 0.468968 0.453161
vt 0.482873 0.453161
vt 0.482873 0.421308
vt 0.468968 0.297687
vt 0.482873 0.297667
vn 0.000000 0.000000 1.000000
vn 0.000000 0.000000 1.000000
vn 0.000000 0.000000 1.000000
vn 0.000000 0.000000 1.000000
vn 0.000000 0.000000 1.000000
vn 0.000000 0.000000 1.000000
vn 0.000000 0.000000 1.000000
vn 0.000000 0.000000 1.000000
vn 0.000000 0.000000 1.000000
vn 0.000000 0.000000 1.000000
vn 0.000000 0.000000 1.000000
vn 0.000000 0.000000 1.000000
vn 0.000000 0.000000 1.000000
vn 0.000000 0.000000 1.000000
vn 0.000000 0.000000 1.000000
vn 0.000000 0.000000 1.000000
vn 0.000000 0.000000 1.000000
vn 0.000000 0.000000 1.000000
vn 0.000000 0.000000 1.000000
vn 0.000000 0.000000 1.000000
vn 0.000000 0.000000 1.000000
vn 0.000000 0.000000 1.000000
vn 0.000000 0.000000 1.000000
vn 0.000000 0.000000 1.000000
vn 0.000000 0.000000 1.000000
vn 0.000000 0.000000 1.000000
vn -0.000000 0.000000 -1.000000
vn 0.000000 0.000000 -1.000000
vn -0.000000 0.000000 -1.000000
vn 0.000000 0.000000 -1.000000
vn 0.000000 0.000000 -1.000000
vn -0.000000 0.000000 -1.000000
vn 0.000000 0.000000 -1.000000
vn -0.000000 0.000000 -1.000000
vn -0.000000 0.000000 -1.000000
vn -0.000000 0.000000 -1.000000
vn 0.000000 0.000000 -1.000000
vn -0.000000 0.000000 -1.000000
vn 0.000000 0.000000 -1.000000
vn 0.000001 0.000000 -1.000000
vn -0.000000 0.000000 -1.000000
vn -0.000000 0.000000 -1.000000
vn -0.000000 0.000000 -1.000000
vn -0.000000 0.000000 -1.000000
vn -0.000000 0.000000 -1.000000
vn -0.000000 0.000000 -1.000000
vn -0.000000 0.000000 -1.000000
vn -0.000000 0.000000 -1.000000
vn -0.000000 0.000000 -1.000000
vn -0.000000 0.000000 -1.000000
vn -0.000000 0.000000 -1.000000
vn -0.000000 0.000000 -1.000000
vn -0.947893 0.318576 -0.002854
vn -0.999798 0.017732 -0.009492
vn -0.999797 0.017790 -0.009490
vn -0.947893 0.318576 -0.002854
vn -0.809015 0.587785 -0.002088
vn -0.947893 0.318576 -0.002854
vn -0.947893 0.318576 -0.002854
vn -0.809015 0.587785 -0.002088
vn -0.587784 0.809015 -0.002082
vn -0.809015 0.587785 -0.002088
vn -0.809015 0.587785 -0.002088
vn -0.587784 0.809015 -0.002082
vn -0.318724 0.947845 -0.002091
vn -0.587784 0.809015 -0.002082
vn -0.587784 0.809015 -0.002082
vn -0.318723 0.947846 -0.002091
vn 0.999999 -0.000099 0.001329
vn 1.000000 -0.000060 0.001072
vn 1.000000 -0.000060 0.001072
vn 0.999999 -0.000099 0.001328
vn -0.166869 0.985977 -0.002080
vn -0.318724 0.947845 -0.002091
vn -0.318723 0.947846 -0.002091
vn -0.166869 0.985977 -0.002080
vn -0.003353 -0.999962 0.008084
vn -0.003353 -0.999962 0.008084
vn -0.003353 -0.999962 0.008084
vn -0.003353 -0.999962 0.008084
vn 0.999819 -0.000140 0.019034
vn 0.999819 -0.000140 0.019034
vn 0.999819 -0.000140 0.019034
vn 0.999819 -0.000140 0.019034
vn 0.875103 -0.483903 0.005655
vn 0.875103 -0.483903 0.005655
vn 0.875103 -0.483903 0.005655
vn 0.875103 -0.483903 0.005655
vn 0.999997 -0.000288 0.002569
vn 0.999999 -0.000099 0.001329
vn 0.999999 -0.000099 0.001328
vn 0.999997 -0.000288 0.002569
vn 0.842330 0.538931 0.005713
vn 0.842331 0.538931 0.005713
vn 0.842331 0.538931 0.005713
vn 0.842331 0.538931 0.005713
vn -0.999798 0.017732 -0.009492
vn -0.999943 0.003601 -0.010036
vn -0.999943 0.003601 -0.010036
vn -0.999797 0.017790 -0.009490
s off
g body_window_shutter_01_body_window_shutter_01_window_frame_01_shutter_window_shutter body_window_shutter_01_group1 body_window_shutter_01_polySurface1
usemtl lambert2SG
f 13/1/1 14/2/2 15/3/3
f 15/3/4 14/2/5 16/4/6
f 16/4/7 14/2/8 17/5/9
f 17/5/10 14/2/11 18/6/12
f 18/6/13 14/2/14 19/7/15
f 20/8/16 21/9/17 22/10/18
f 13/1/19 23/11/20 24/12/21 14/2/22
f 20/8/23 22/10/24 23/11/25 13/1/26
f 6/13/27 1/14/28 8/15/29
f 1/14/30 2/16/31 8/15/32
f 2/16/33 3/17/34 8/15/35
f 3/17/36 4/18/37 8/15/38
f 4/18/39 5/19/40 8/15/41
f 7/20/42 11/21/43 9/22/44
f 6/13/45 8/15/46 10/23/47 12/24/48
f 7/20/49 6/13/50 12/24/51 11/21/52
f 1/25/53 6/26/54 13/27/55 15/28/56
f 2/29/57 1/25/58 15/28/59 16/30/60
f 3/31/61 2/29/62 16/30/63 17/32/64
f 4/33/65 3/31/66 17/32/67 18/34/68
f 8/35/69 5/36/70 19/37/71 14/38/72
f 5/36/73 4/33/74 18/34/75 19/37/76
f 7/39/77 9/40/78 21/41/79 20/42/80
f 9/43/81 11/44/82 22/45/83 21/46/84
f 12/47/85 10/48/86 24/49/87 23/50/88
f 10/48/89 8/35/90 14/38/91 24/49/92
f 11/44/93 12/47/94 23/50/95 22/45/96
f 6/26/97 7/51/98 20/52/99 13/27/100
