# This file uses centimeters as units for non-parametric coordinates.

mtllib body_window_shutter_02.mtl
g body_window_shutter_02_body_window_shutter_02_body_window_shutter_02_window_frame_02_shutter_default1
v -0.297137 0.135529 0.051942
v -0.016166 0.135493 0.052205
v -0.297292 -0.473727 0.051834
v -0.016166 -0.474265 0.052205
v -0.016166 -0.068102 0.052205
v -0.016166 -0.176745 0.052205
v -0.072508 -0.126430 0.052133
v -0.297232 0.135553 0.067092
v -0.016238 0.135541 0.067355
v -0.297687 -0.473631 0.066984
v -0.016740 -0.474157 0.067355
v -0.016561 -0.176650 0.067355
v -0.072676 -0.126382 0.067283
v -0.016298 -0.068054 0.067355
vt 0.188287 0.631222
vt 0.312975 0.631930
vt 0.189634 0.360900
vt 0.314305 0.361382
vt 0.313626 0.493397
vt 0.288597 0.515564
vt 0.313471 0.541588
vt 0.463333 0.626483
vt 0.338231 0.628291
vt 0.459447 0.355207
vt 0.336204 0.489265
vt 0.334273 0.356790
vt 0.336908 0.537639
vt 0.361615 0.511300
vt 0.148720 0.604087
vt 0.161798 0.604093
vt 0.148720 0.626057
vt 0.161798 0.626058
vt 0.148720 0.396818
vt 0.148720 0.346038
vt 0.161798 0.346028
vt 0.161798 0.396799
vt 0.148720 0.370268
vt 0.161798 0.370268
vt 0.148720 0.513084
vt 0.148720 0.543057
vt 0.161798 0.543057
vt 0.161798 0.513096
vt 0.126731 0.378049
vt 0.125206 0.463234
vt 0.120618 0.462986
vt 0.122142 0.377852
vn -0.001196 -0.000095 0.999999
vn -0.001342 0.000000 0.999999
vn -0.001169 -0.000113 0.999999
vn -0.148260 0.067782 0.986623
vn -0.001101 -0.000128 0.999999
vn -0.001016 -0.000070 1.000000
vn -0.001001 0.099659 0.995021
vn -0.001196 -0.000095 0.999999
vn -0.001169 -0.000113 0.999999
vn -0.001101 -0.000128 0.999999
vn -0.148260 0.067782 0.986623
vn 0.001196 0.000095 -0.999999
vn 0.001169 0.000113 -0.999999
vn 0.001343 0.000000 -0.999999
vn 0.001084 0.000116 -0.999999
vn 0.001016 0.000070 -1.000000
vn 0.001016 0.000070 -1.000000
vn 0.001101 0.000127 -0.999999
vn 0.001196 0.000095 -0.999999
vn 0.001084 0.000116 -0.999999
vn 0.001101 0.000127 -0.999999
vn 0.001169 0.000113 -0.999999
vn 0.000096 0.999997 -0.002336
vn -0.907623 0.419496 -0.015599
vn -0.148260 0.067782 0.986623
vn -0.001001 0.099659 0.995021
vn -0.001895 -0.999978 0.006363
vn -0.001895 -0.999978 0.006363
vn -0.001895 -0.999978 0.006363
vn -0.001895 -0.999978 0.006363
vn 0.999499 -0.000292 0.031664
vn 0.999499 -0.000292 0.031664
vn 0.999499 -0.000292 0.031664
vn 0.999499 -0.000292 0.031664
vn 0.719088 -0.694859 0.009179
vn 0.719088 -0.694859 0.009179
vn 0.719088 -0.694859 0.009179
vn 0.719088 -0.694859 0.009179
vn 0.999980 -0.000121 0.006345
vn 0.999980 -0.000121 0.006345
vn 0.999980 -0.000121 0.006345
vn 0.999980 -0.000121 0.006345
vn 0.666636 0.745331 0.008838
vn 0.666636 0.745331 0.008838
vn 0.666636 0.745331 0.008838
vn 0.666636 0.745331 0.008838
vn -0.907623 0.419496 -0.015599
vn -0.999870 0.000503 -0.016105
vn -0.999870 0.000503 -0.016105
vn -0.148260 0.067782 0.986623
s off
g body_window_shutter_02_body_window_shutter_02_body_window_shutter_02_polySurface1 body_window_shutter_02_body_window_shutter_02_body_window_shutter_02_window_frame_02_shutter_group9 body_window_shutter_02_body_window_shutter_02_body_window_shutter_02_window_frame_02_shutter_polySurface1 body_window_shutter_02_body_window_shutter_02_body_window_shutter_02_window_frame_02_shutter_window_shutter2 body_window_shutter_02_body_window_shutter_02_group1 body_window_shutter_02_body_window_shutter_02_group2 body_window_shutter_02_body_window_shutter_02_polySurface1 body_window_shutter_02_polySurface1
usemtl lambert2SG
f 10/3/1 11/4/2 12/5/3
f 8/1/4 13/6/5 14/7/6 9/2/7
f 10/3/8 12/5/9 13/6/10 8/1/11
f 3/10/12 6/11/13 4/12/14
f 1/8/15 2/9/16 5/13/17 7/14/18
f 3/10/19 1/8/20 7/14/21 6/11/22
f 2/17/23 1/15/24 8/16/25 9/18/26
f 3/29/27 4/30/28 11/31/29 10/32/30
f 4/20/31 6/23/32 12/24/33 11/21/34
f 7/25/35 5/26/36 14/27/37 13/28/38
f 5/26/39 2/17/40 9/18/41 14/27/42
f 6/23/43 7/25/44 13/28/45 12/24/46
f 1/15/47 3/19/48 10/22/49 8/16/50
