# This file uses centimeters as units for non-parametric coordinates.

mtllib body_window_cut_01.mtl
g body_window_cut_01_window_frame_01_cut_default1
v -0.251550 0.240410 0.000000
v -0.220430 0.439110 0.000000
v 0.000000 0.487150 0.000000
v 0.220430 0.439110 0.000000
v 0.251550 0.240410 0.000000
v 0.251550 -0.539480 0.000000
v -0.251550 -0.539480 0.000000
vt 0.246746 0.499655
vt 0.218242 0.514028
vt 0.197875 0.483369
vt 0.275254 0.514028
vt 0.295613 0.483369
vt 0.292632 0.325190
vt 0.200860 0.325191
vn 0.000000 0.000000 1.000000
vn 0.000000 0.000000 1.000000
vn 0.000000 0.000000 1.000000
vn 0.000000 0.000000 1.000000
vn 0.000000 0.000000 1.000000
vn 0.000000 0.000000 1.000000
vn 0.000000 0.000000 1.000000
vn 0.000000 0.000000 1.000000
vn 0.000000 0.000000 1.000000
vn 0.000000 0.000000 1.000000
vn 0.000000 0.000000 1.000000
vn 0.000000 0.000000 1.000000
vn 0.000000 0.000000 1.000000
vn 0.000000 0.000000 1.000000
vn 0.000000 0.000000 1.000000
s off
g body_window_cut_01_window_frame_01_cut_group1 body_window_cut_01_window_frame_01_cut_polySurface1 body_window_cut_01_window_frame_01_cut_windowFrame_cut body_window_cut_01_window_frame_01_cut_window_frame_01 body_window_cut_01_polySurface1 group1
usemtl initialShadingGroup
f 2/2/1 1/3/2 3/1/3
f 5/5/4 4/4/5 3/1/6
f 3/1/7 1/3/8 7/7/9
f 5/5/10 3/1/11 6/6/12
f 3/1/13 7/7/14 6/6/15
