# This file uses centimeters as units for non-parametric coordinates.

mtllib body_window_frame_01.mtl
g body_window_frame_01_default1
v -0.239240 0.313330 0.000000
v -0.203510 0.383460 0.000000
v -0.147860 0.439110 0.000000
v -0.077730 0.474840 0.000000
v 0.000000 0.487150 0.000000
v 0.077730 0.474840 0.000000
v 0.147860 0.439110 0.000000
v 0.203510 0.383460 0.000000
v 0.239240 0.313330 0.000000
v 0.251550 0.240410 0.000000
v -0.251550 0.240410 0.000000
v 0.251550 -0.539480 0.000000
v -0.251550 -0.539480 0.000000
v -0.198940 0.300010 -0.036170
v -0.169200 0.358530 -0.036170
v -0.122930 0.404800 -0.036170
v -0.064630 0.434500 -0.036170
v 0.000000 0.444740 -0.036170
v 0.064630 0.434500 -0.036170
v 0.122930 0.404800 -0.036170
v 0.169200 0.358530 -0.036170
v 0.198940 0.300010 -0.036170
v 0.209210 0.240410 -0.036170
v -0.209210 0.240410 -0.036170
v 0.209210 -0.472220 -0.036170
v -0.209210 -0.472220 -0.036170
v -0.239240 0.313330 0.000000
v -0.203510 0.383460 0.000000
v -0.147860 0.439110 0.000000
v -0.077730 0.474840 0.000000
v 0.000000 0.487150 0.000000
v 0.077730 0.474840 0.000000
v 0.147860 0.439110 0.000000
v 0.203510 0.383460 0.000000
v 0.239240 0.313330 0.000000
v 0.251550 0.240410 0.000000
v -0.251550 0.240410 0.000000
v -0.296960 0.332090 0.000000
v -0.252610 0.419130 0.000000
v -0.183530 0.488210 0.000000
v -0.096490 0.532560 0.000000
v 0.000000 0.547840 0.000000
v 0.096490 0.532560 0.000000
v 0.183530 0.488210 0.000000
v 0.252610 0.419130 0.000000
v 0.296960 0.332090 0.000000
v 0.312240 0.240410 0.000000
v -0.312240 0.240410 0.000000
v 0.312240 -0.539480 0.000000
v -0.312240 -0.539480 0.000000
v -0.252610 0.419130 0.054070
v -0.296960 0.332090 0.054070
v -0.183530 0.488210 0.054070
v -0.096490 0.532560 0.054070
v 0.000000 0.547840 0.054070
v 0.096490 0.532560 0.054070
v 0.183530 0.488210 0.054070
v 0.252610 0.419130 0.054070
v 0.296960 0.332090 0.054070
v 0.312240 0.240410 0.054070
v -0.312240 0.240410 0.054070
v 0.312240 -0.539480 0.054070
v -0.312240 -0.539480 0.054070
v -0.239240 0.313330 0.048660
v -0.244430 0.315050 0.054070
v -0.207940 0.386680 0.054070
v -0.203510 0.383460 0.048660
v -0.151080 0.443540 0.054070
v -0.147860 0.439110 0.048660
v -0.079420 0.480050 0.054070
v -0.077730 0.474840 0.048660
v 0.000000 0.492620 0.054070
v 0.000000 0.487150 0.048660
v 0.079420 0.480050 0.054070
v 0.077730 0.474840 0.048660
v 0.151080 0.443540 0.054070
v 0.147860 0.439110 0.048660
v 0.207940 0.386680 0.054070
v 0.203510 0.383460 0.048660
v 0.244430 0.315050 0.054070
v 0.239240 0.313330 0.048660
v 0.256960 0.240860 0.054070
v 0.251550 0.240410 0.048660
v -0.251550 0.240410 0.048660
v -0.256960 0.240860 0.054070
v 0.254250 -0.539480 0.051370
v -0.254250 -0.539480 0.051370
v -0.207620 0.302890 0.000000
v -0.198940 0.300010 -0.009040
v -0.176610 0.363910 0.000000
v -0.169200 0.358530 -0.009040
v -0.128310 0.412200 0.000000
v -0.122930 0.404800 -0.009040
v -0.067460 0.443210 0.000000
v -0.064630 0.434500 -0.009040
v 0.000000 0.453890 0.000000
v 0.000000 0.444740 -0.009040
v 0.067460 0.443210 0.000000
v 0.064630 0.434500 -0.009040
v 0.128310 0.412200 0.000000
v 0.122930 0.404800 -0.009040
v 0.176610 0.363910 0.000000
v 0.169200 0.358530 -0.009040
v 0.207620 0.302890 0.000000
v 0.198940 0.300010 -0.009040
v 0.218250 0.241180 0.000000
v 0.209210 0.240410 -0.009040
v -0.218250 0.241180 0.000000
v -0.209210 0.240410 -0.009040
v 0.218250 -0.481260 0.000000
v 0.209210 -0.472220 -0.009040
v -0.218250 -0.481260 0.000000
v -0.209210 -0.472220 -0.009040
vt 0.271715 0.492455
vt 0.271422 0.472862
vt 0.282617 0.472862
vt 0.282323 0.492455
vt 0.271834 0.511126
vt 0.282200 0.511126
vt 0.271820 0.529806
vt 0.282209 0.529808
vt 0.271778 0.548674
vt 0.282247 0.548677
vt 0.271766 0.567539
vt 0.282252 0.567600
vt 0.291776 0.298688
vt 0.291852 0.279879
vt 0.302265 0.279881
vt 0.302337 0.298690
vt 0.291612 0.318031
vt 0.302496 0.318033
vt 0.291404 0.337997
vt 0.302704 0.337997
vt 0.291098 0.357778
vt 0.303006 0.357778
vt 0.271053 0.453025
vt 0.282988 0.453021
vt 0.341642 0.216596
vt 0.364056 0.215811
vt 0.364756 0.235777
vt 0.343315 0.235523
vt 0.291069 0.530386
vt 0.303035 0.530386
vt 0.271024 0.280062
vt 0.283017 0.280060
vt 0.129240 0.215789
vt 0.151654 0.216576
vt 0.149978 0.235507
vt 0.128538 0.235753
vt 0.082697 0.605137
vt 0.082697 0.605661
vt 0.082697 0.624859
vt 0.082697 0.623932
vt 0.082697 0.582297
vt 0.082697 0.582215
vt 0.082697 0.581903
vt 0.082697 0.552232
vt 0.082697 0.552303
vt 0.082697 0.518862
vt 0.082697 0.517390
vt 0.082697 0.481903
vt 0.082697 0.481216
vt 0.082697 0.480771
vt 0.082697 0.443753
vt 0.082697 0.444990
vt 0.082697 0.410441
vt 0.082697 0.410158
vt 0.082697 0.380882
vt 0.082697 0.380401
vt 0.082697 0.380506
vt 0.082697 0.357830
vt 0.082697 0.357163
vt 0.082697 0.339154
vt 0.344613 0.523699
vt 0.341792 0.523495
vt 0.151482 0.523475
vt 0.109655 0.579916
vt 0.109655 0.604498
vt 0.109655 0.550517
vt 0.109655 0.517413
vt 0.109655 0.480197
vt 0.109655 0.442983
vt 0.109655 0.409876
vt 0.109655 0.380478
vt 0.109655 0.355895
vt 0.109655 0.333667
vt 0.128253 0.523782
vt 0.246690 0.514663
vt 0.246373 0.534427
vt 0.234585 0.534431
vt 0.233976 0.514791
vt 0.245913 0.552882
vt 0.234799 0.552737
vt 0.245329 0.570335
vt 0.234533 0.570113
vt 0.245032 0.587711
vt 0.234287 0.587489
vt 0.244587 0.604991
vt 0.233825 0.604714
vt 0.263601 0.273304
vt 0.263542 0.291350
vt 0.252288 0.291236
vt 0.252501 0.273314
vt 0.263435 0.309649
vt 0.251908 0.309412
vt 0.263265 0.328571
vt 0.250919 0.328335
vt 0.263731 0.347973
vt 0.249934 0.348011
vt 0.246919 0.494519
vt 0.233216 0.494725
vt 0.264969 0.571253
vt 0.250240 0.571333
vt 0.243591 0.273884
vt 0.229027 0.274106
vt 0.039855 0.567889
vt 0.038583 0.568834
vt 0.038272 0.551494
vt 0.039535 0.550088
vt 0.040861 0.582658
vt 0.039516 0.583984
vt 0.037853 0.550534
vt 0.036526 0.526991
vt 0.038281 0.526314
vt 0.034828 0.500450
vt 0.036831 0.499715
vt 0.034073 0.470498
vt 0.036272 0.469009
vt 0.034033 0.467694
vt 0.033947 0.437717
vt 0.035969 0.438293
vt 0.034798 0.411074
vt 0.036577 0.411611
vt 0.033826 0.387519
vt 0.035521 0.387831
vt 0.034197 0.386528
vt 0.034915 0.369145
vt 0.036548 0.369348
vt 0.036281 0.353900
vt 0.325648 0.518003
vt 0.321178 0.517761
vt 0.320246 0.269077
vt 0.197273 0.402106
vt 0.172493 0.517759
vt 0.169603 0.265220
vt 0.203484 0.552668
vt 0.054695 0.548083
vt 0.054938 0.565344
vt 0.054365 0.524608
vt 0.053991 0.497984
vt 0.053574 0.468314
vt 0.053157 0.438647
vt 0.052783 0.412024
vt 0.052453 0.388549
vt 0.052211 0.371286
vt 0.337310 0.517669
vt 0.055174 0.582134
vt 0.176633 0.390888
vt 0.179409 0.568412
vt 0.212122 0.334778
vt 0.212332 0.350434
vt 0.205621 0.350434
vt 0.205833 0.334778
vt 0.211970 0.320006
vt 0.205988 0.320006
vt 0.211827 0.305948
vt 0.206135 0.305946
vt 0.211773 0.292487
vt 0.206195 0.292487
vt 0.211779 0.279006
vt 0.206191 0.279004
vt 0.226446 0.515421
vt 0.226390 0.528763
vt 0.220855 0.528763
vt 0.220804 0.515421
vt 0.226656 0.501593
vt 0.220596 0.501593
vt 0.226941 0.486200
vt 0.220314 0.486200
vt 0.227258 0.470817
vt 0.219997 0.470817
vt 0.212603 0.365825
vt 0.205348 0.365827
vt 0.227272 0.279225
vt 0.219970 0.279225
vt 0.212630 0.557205
vt 0.205334 0.557205
vt 0.199381 0.278992
vt 0.199388 0.391890
vt 0.192086 0.391890
vt 0.192084 0.278992
vt 0.158063 0.244760
vt 0.199685 0.556553
vt 0.335608 0.244755
vt 0.324069 0.265218
vt 0.173429 0.269078
vt 0.201191 0.405868
vt 0.156343 0.517663
vt 0.168018 0.518001
vt 0.037465 0.354555
vt 0.051975 0.354493
vt 0.109655 0.626724
vt 0.148661 0.523679
vt 0.082697 0.338079
vt 0.365020 0.523804
vn -0.809017 0.587785 -0.000000
vn -0.948591 0.316504 -0.000000
vn -0.948591 0.316504 -0.000000
vn -0.809017 0.587785 -0.000000
vn -0.587785 0.809017 -0.000000
vn -0.809017 0.587785 -0.000000
vn -0.809017 0.587785 -0.000000
vn -0.587785 0.809017 -0.000000
vn -0.309017 0.951057 0.000000
vn -0.587785 0.809017 -0.000000
vn -0.587785 0.809017 -0.000000
vn -0.309017 0.951057 0.000000
vn 0.000000 1.000000 0.000000
vn -0.309017 0.951057 0.000000
vn -0.309017 0.951057 0.000000
vn 0.000000 1.000000 0.000000
vn 0.309017 0.951057 0.000000
vn 0.000000 1.000000 0.000000
vn 0.000000 1.000000 0.000000
vn 0.309017 0.951056 0.000000
vn 0.587785 0.809017 0.000000
vn 0.309017 0.951057 0.000000
vn 0.309017 0.951056 0.000000
vn 0.587785 0.809017 0.000000
vn 0.809017 0.587785 0.000000
vn 0.587785 0.809017 0.000000
vn 0.587785 0.809017 0.000000
vn 0.809017 0.587785 0.000000
vn 0.948591 0.316504 0.000000
vn 0.809017 0.587785 0.000000
vn 0.809017 0.587785 0.000000
vn 0.948591 0.316504 0.000000
vn 0.999846 0.017532 0.000000
vn 0.948591 0.316504 0.000000
vn 0.948591 0.316504 0.000000
vn 0.999846 0.017532 0.000000
vn -0.948591 0.316504 -0.000000
vn -0.999846 0.017531 -0.000000
vn -0.999846 0.017531 -0.000000
vn -0.948591 0.316504 -0.000000
vn 0.000000 -1.000000 0.000001
vn 0.000000 -1.000000 0.000001
vn 0.000000 -1.000000 0.000001
vn 0.000000 -1.000000 0.000001
vn 1.000000 0.000000 0.000000
vn 0.999846 0.017532 0.000000
vn 0.999846 0.017532 0.000000
vn 1.000000 0.000000 0.000000
vn -0.999846 0.017531 -0.000000
vn -1.000000 0.000000 -0.000000
vn -1.000000 0.000000 -0.000000
vn -0.999846 0.017531 -0.000000
vn 0.000000 -1.000000 0.000000
vn 0.000000 -1.000000 0.000000
vn 0.000000 -1.000000 0.000000
vn 0.000000 -1.000000 0.000000
vn 0.666388 -0.223911 0.711190
vn 0.666388 -0.223911 0.711190
vn 0.706187 -0.018967 0.707771
vn 0.706187 -0.018963 0.707771
vn 0.666388 -0.223911 0.711190
vn 0.666388 -0.223911 0.711190
vn 0.568502 -0.413054 0.711472
vn 0.568502 -0.413053 0.711472
vn 0.568502 -0.413053 0.711472
vn 0.568502 -0.413054 0.711472
vn 0.413044 -0.568507 0.711473
vn 0.413045 -0.568507 0.711473
vn 0.413045 -0.568507 0.711473
vn 0.413044 -0.568507 0.711473
vn 0.217150 -0.668320 0.711473
vn 0.217150 -0.668320 0.711473
vn 0.217150 -0.668320 0.711473
vn 0.217150 -0.668320 0.711473
vn 0.000000 -0.702714 0.711472
vn 0.000000 -0.702714 0.711472
vn 0.000000 -0.702714 0.711472
vn 0.000000 -0.702714 0.711472
vn -0.217151 -0.668321 0.711472
vn -0.217151 -0.668321 0.711472
vn -0.217151 -0.668321 0.711472
vn -0.217151 -0.668321 0.711472
vn -0.413045 -0.568507 0.711473
vn -0.413045 -0.568506 0.711473
vn -0.413045 -0.568506 0.711473
vn -0.413045 -0.568507 0.711473
vn -0.568501 -0.413052 0.711473
vn -0.568501 -0.413052 0.711473
vn -0.568501 -0.413052 0.711473
vn -0.568501 -0.413052 0.711473
vn -0.666388 -0.223912 0.711190
vn -0.666388 -0.223912 0.711190
vn -0.666388 -0.223912 0.711190
vn -0.666388 -0.223912 0.711190
vn -0.706188 -0.018964 0.707771
vn -0.706187 -0.018968 0.707771
vn -0.706187 -0.018968 0.707771
vn -0.706188 -0.018964 0.707771
vn -0.707110 0.000000 0.707103
vn 0.706187 -0.018963 0.707771
vn 0.706187 -0.018967 0.707771
vn 0.707110 0.000000 0.707103
vn 0.000000 0.000000 1.000000
vn 0.000000 0.000000 1.000000
vn 0.000000 0.000000 1.000000
vn 0.000000 0.000000 1.000000
vn 0.000000 0.000000 1.000000
vn 0.000000 0.000000 1.000000
vn 0.000000 0.000000 1.000000
vn 0.000000 0.000000 1.000000
vn 0.000000 0.000000 1.000000
vn 0.000000 0.000000 1.000000
vn 0.000000 0.000000 1.000000
vn 0.000000 0.000000 1.000000
vn 0.000000 0.000000 1.000000
vn 0.000000 0.000000 1.000000
vn 0.000000 0.000000 1.000000
vn 0.000000 0.000000 1.000000
vn 0.000000 0.000000 1.000000
vn 0.000000 0.000000 1.000000
vn 0.000000 0.000000 1.000000
vn 0.000000 0.000000 1.000000
vn 0.000000 0.000000 1.000000
vn 0.000000 0.000000 1.000000
vn 0.000000 0.000000 1.000000
vn 0.000000 0.000000 1.000000
vn 0.000000 0.000000 1.000000
vn 0.000000 0.000000 1.000000
vn 0.000000 0.000000 1.000000
vn 0.000000 0.000000 1.000000
vn 0.000000 0.000000 1.000000
vn 0.000000 0.000000 1.000000
vn 0.000000 0.000000 1.000000
vn 0.000000 0.000000 1.000000
vn 0.000000 0.000000 1.000000
vn -0.021390 -0.001515 0.999770
vn -0.021858 -0.001549 0.999760
vn 0.000000 0.000000 1.000000
vn 0.021390 -0.001515 0.999770
vn 0.000000 0.000000 1.000000
vn 0.000000 0.000000 1.000000
vn 0.021858 -0.001549 0.999760
vn -0.021858 -0.001549 0.999760
vn -0.021390 -0.001515 0.999770
vn -0.023865 -0.001691 0.999714
vn -0.023865 -0.001691 0.999714
vn 0.021390 -0.001515 0.999770
vn 0.021858 -0.001549 0.999760
vn 0.023865 -0.001691 0.999714
vn 0.023865 -0.001691 0.999714
vn 0.947969 -0.318362 0.000000
vn 0.809017 -0.587785 0.000000
vn 0.809017 -0.587785 0.000000
vn 0.947969 -0.318362 0.000000
vn 0.809017 -0.587785 0.000000
vn 0.587785 -0.809017 0.000001
vn 0.587785 -0.809017 0.000001
vn 0.809017 -0.587785 0.000000
vn 0.587785 -0.809017 0.000001
vn 0.309017 -0.951057 0.000001
vn 0.309017 -0.951057 0.000001
vn 0.587785 -0.809017 0.000001
vn 0.309017 -0.951057 0.000001
vn 0.000000 -1.000000 0.000000
vn 0.000000 -1.000000 0.000000
vn 0.309017 -0.951057 0.000001
vn 0.000000 -1.000000 0.000000
vn -0.309017 -0.951057 0.000000
vn -0.309017 -0.951056 0.000000
vn 0.000000 -1.000000 0.000000
vn -0.309017 -0.951057 0.000000
vn -0.587786 -0.809017 0.000000
vn -0.587786 -0.809017 0.000000
vn -0.309017 -0.951056 0.000000
vn -0.587786 -0.809017 0.000000
vn -0.809017 -0.587785 0.000000
vn -0.809017 -0.587785 0.000000
vn -0.587786 -0.809017 0.000000
vn -0.809017 -0.587785 0.000000
vn -0.947969 -0.318362 0.000000
vn -0.947969 -0.318362 0.000000
vn -0.809017 -0.587785 0.000000
vn -0.947969 -0.318362 0.000000
vn -0.999572 -0.015618 0.024760
vn -0.999572 -0.015590 0.024764
vn -0.947969 -0.318362 0.000000
vn 0.999572 -0.015618 0.024760
vn 0.947969 -0.318362 0.000000
vn 0.947969 -0.318362 0.000000
vn 0.999572 -0.015590 0.024764
vn -0.999572 -0.015618 0.024760
vn -0.999634 -0.001686 0.027014
vn -0.999634 -0.001686 0.027014
vn -0.999572 -0.015590 0.024764
vn 0.999634 -0.001686 0.027014
vn 0.999572 -0.015618 0.024760
vn 0.999572 -0.015590 0.024764
vn 0.999634 -0.001686 0.027014
vn 0.665891 -0.225762 0.711070
vn 0.665891 -0.225762 0.711070
vn 0.568779 -0.412623 0.711500
vn 0.568779 -0.412623 0.711500
vn 0.665891 -0.225762 0.711070
vn 0.665891 -0.225762 0.711070
vn 0.706668 -0.009492 0.707482
vn 0.706668 -0.009492 0.707482
vn 0.568779 -0.412623 0.711500
vn 0.568779 -0.412623 0.711500
vn 0.413046 -0.568507 0.711472
vn 0.413046 -0.568507 0.711472
vn 0.413046 -0.568507 0.711472
vn 0.413046 -0.568507 0.711472
vn 0.217151 -0.668321 0.711472
vn 0.217151 -0.668321 0.711472
vn 0.217151 -0.668321 0.711472
vn 0.217151 -0.668321 0.711472
vn 0.000000 -0.702715 0.711471
vn 0.000000 -0.702715 0.711471
vn 0.000000 -0.702715 0.711471
vn 0.000000 -0.702715 0.711471
vn -0.217151 -0.668321 0.711472
vn -0.217151 -0.668321 0.711472
vn -0.217151 -0.668321 0.711472
vn -0.217151 -0.668321 0.711472
vn -0.413046 -0.568506 0.711473
vn -0.413046 -0.568506 0.711473
vn -0.413046 -0.568506 0.711473
vn -0.413046 -0.568506 0.711473
vn -0.568778 -0.412623 0.711501
vn -0.568778 -0.412623 0.711501
vn -0.568778 -0.412623 0.711501
vn -0.568778 -0.412623 0.711501
vn -0.665891 -0.225763 0.711070
vn -0.665891 -0.225763 0.711070
vn -0.665891 -0.225763 0.711070
vn -0.665891 -0.225763 0.711070
vn -0.706670 -0.009492 0.707480
vn -0.706670 -0.009492 0.707480
vn -0.706670 -0.009492 0.707480
vn -0.706670 -0.009492 0.707480
vn -0.707108 0.000000 0.707106
vn -0.707108 0.000000 0.707106
vn 0.706668 -0.009492 0.707482
vn 0.706668 -0.009492 0.707482
vn 0.707106 0.000000 0.707108
vn 0.707106 0.000000 0.707108
vn 0.000000 0.707106 0.707107
vn 0.000000 0.707106 0.707107
vn 0.000000 0.707106 0.707107
vn 0.000000 0.707106 0.707107
vn 0.000000 0.000000 1.000000
vn 0.000000 0.000000 1.000000
vn 0.000000 0.000000 1.000000
vn 0.000000 0.000000 1.000000
vn 0.000000 0.000000 1.000000
vn 0.000000 0.000000 1.000000
vn 0.000000 0.000000 1.000000
vn 0.000000 0.000000 1.000000
vn 0.000000 0.000000 1.000000
vn 0.000000 0.000000 1.000000
vn 0.000000 0.000000 1.000000
vn 0.000000 0.000000 1.000000
vn 0.000000 0.000000 1.000000
vn 0.000000 0.000000 1.000000
vn 0.000000 0.000000 1.000000
vn 0.000000 0.000000 1.000000
vn 0.000000 0.000000 1.000000
vn 0.000000 0.000000 1.000000
vn 0.000000 0.000000 1.000000
vn 0.000000 0.000000 1.000000
vn 0.000000 0.000000 1.000000
vn 0.000000 0.000000 1.000000
vn 0.000000 0.000000 1.000000
vn 0.000000 0.000000 1.000000
vn 0.000000 0.000000 1.000000
vn 0.000000 0.000000 1.000000
vn 0.000000 0.000000 1.000000
vn 0.000000 0.000000 1.000000
vn 0.000000 0.000000 1.000000
vn 0.000000 0.000000 1.000000
vn 0.000000 0.000000 1.000000
vn 0.000000 0.000000 1.000000
vn 0.000000 -0.000000 1.000000
vn 0.000000 0.000000 1.000000
vn 0.000000 0.000000 1.000000
vn 0.000000 -0.000000 1.000000
vn 0.000000 0.000000 1.000000
vn 0.000000 0.000000 1.000000
vn 0.000000 0.000000 1.000000
vn 0.000000 0.000000 1.000000
vn 0.000000 0.000000 1.000000
vn 0.000000 0.000000 1.000000
vn 0.000000 0.000000 1.000000
vn 0.000000 0.000000 1.000000
vn 0.000000 0.000000 1.000000
vn 0.000000 0.000000 1.000000
vn 0.000000 0.000000 1.000000
vn 0.000000 0.000000 1.000000
vn 0.000000 -0.000000 1.000000
vn 0.000000 -0.000000 1.000000
vn 0.000000 0.000000 1.000000
vn 0.000000 0.000000 1.000000
vn 0.809462 -0.587172 0.000000
vn 0.947137 -0.320829 0.000000
vn 0.947137 -0.320829 0.000000
vn 0.809462 -0.587172 0.000000
vn 0.587785 -0.809017 0.000000
vn 0.809462 -0.587172 0.000000
vn 0.809462 -0.587172 0.000000
vn 0.587785 -0.809017 0.000000
vn 0.309017 -0.951057 0.000000
vn 0.587785 -0.809017 0.000000
vn 0.587785 -0.809017 0.000000
vn 0.309017 -0.951057 0.000000
vn 0.000000 -1.000000 0.000000
vn 0.309017 -0.951057 0.000000
vn 0.309017 -0.951057 0.000000
vn 0.000000 -1.000000 0.000000
vn -0.309018 -0.951056 0.000000
vn 0.000000 -1.000000 0.000000
vn 0.000000 -1.000000 0.000000
vn -0.309018 -0.951056 0.000000
vn -0.587786 -0.809017 0.000000
vn -0.309018 -0.951056 0.000000
vn -0.309018 -0.951056 0.000000
vn -0.587786 -0.809017 0.000000
vn -0.809462 -0.587172 0.000000
vn -0.587786 -0.809017 0.000000
vn -0.587786 -0.809017 0.000000
vn -0.809462 -0.587172 0.000000
vn -0.947137 -0.320830 0.000000
vn -0.809462 -0.587172 0.000000
vn -0.809462 -0.587172 0.000000
vn -0.947137 -0.320830 0.000000
vn -0.999912 -0.013300 0.000000
vn -0.947137 -0.320830 0.000000
vn -0.947137 -0.320830 0.000000
vn -0.999912 -0.013300 0.000000
vn 0.947137 -0.320829 0.000000
vn 0.999912 -0.013299 0.000000
vn 0.999912 -0.013299 0.000000
vn 0.947137 -0.320829 0.000000
vn -1.000000 0.000000 -0.000000
vn -0.999912 -0.013300 0.000000
vn -0.999912 -0.013300 0.000000
vn -1.000000 0.000000 -0.000000
vn 0.999912 -0.013299 0.000000
vn 1.000000 0.000000 0.000000
vn 1.000000 0.000000 0.000000
vn 0.999912 -0.013299 0.000000
vn 0.000000 1.000000 0.000000
vn 0.000000 1.000000 0.000000
vn 0.000000 1.000000 0.000000
vn 0.000000 1.000000 0.000000
s off
g body_window_frame_01_body_window_frame_01_window_frame_01_windowFrame body_window_frame_01_group1 body_window_frame_01_polySurface1
usemtl lambert2SG
f 39/1/1 38/2/2 52/3/3 51/4/4
f 40/5/5 39/1/6 51/4/7 53/6/8
f 41/7/9 40/5/10 53/6/11 54/8/12
f 42/9/13 41/7/14 54/8/15 55/10/16
f 43/11/17 42/9/18 55/10/19 56/12/20
f 44/13/21 43/14/22 56/15/23 57/16/24
f 45/17/25 44/13/26 57/16/27 58/18/28
f 46/19/29 45/17/30 58/18/31 59/20/32
f 47/21/33 46/19/34 59/20/35 60/22/36
f 38/2/37 48/23/38 61/24/39 52/3/40
f 12/25/41 49/26/42 62/27/43 86/28/44
f 49/29/45 47/21/46 60/22/47 62/30/48
f 48/23/49 50/31/50 63/32/51 61/24/52
f 50/33/53 13/34/54 87/35/55 63/36/56
f 64/37/57 65/38/58 85/39/59 84/40/60
f 65/38/61 64/37/62 67/41/63 66/42/64
f 66/42/65 67/43/66 69/44/67 68/45/68
f 68/45/69 69/44/70 71/46/71 70/47/72
f 70/47/73 71/46/74 73/48/75 72/49/76
f 72/49/77 73/50/78 75/51/79 74/52/80
f 74/52/81 75/51/82 77/53/83 76/54/84
f 76/54/85 77/53/86 79/55/87 78/56/88
f 78/56/89 79/57/90 81/58/91 80/59/92
f 80/59/93 81/58/94 83/60/95 82/191/96
f 82/61/97 83/62/98 86/28/99
f 84/63/100 85/190/101 87/35/102
f 65/38/103 66/42/104 51/64/105 52/65/106
f 66/42/107 68/45/108 53/66/109 51/64/110
f 68/45/111 70/47/112 54/67/113 53/66/114
f 70/47/115 72/49/116 55/68/117 54/67/118
f 72/49/119 74/52/120 56/69/121 55/68/122
f 74/52/123 76/54/124 57/70/125 56/69/126
f 76/54/127 78/56/128 58/71/129 57/70/130
f 78/56/131 80/59/132 59/72/133 58/71/134
f 80/59/135 82/191/136 60/73/137 59/72/138
f 85/39/139 65/38/140 52/65/141 61/189/142
f 60/192/143 82/61/144 86/28/145 62/27/146
f 85/190/147 61/74/148 63/36/149 87/35/150
f 27/75/151 28/76/152 67/77/153 64/78/154
f 28/76/155 29/79/156 69/80/157 67/77/158
f 29/79/159 30/81/160 71/82/161 69/80/162
f 30/81/163 31/83/164 73/84/165 71/82/166
f 31/83/167 32/85/168 75/86/169 73/84/170
f 32/87/171 33/88/172 77/89/173 75/90/174
f 33/88/175 34/91/176 79/92/177 77/89/178
f 34/91/179 35/93/180 81/94/181 79/92/182
f 35/93/183 36/95/184 83/96/185 81/94/186
f 37/97/187 27/75/188 64/78/189 84/98/190
f 36/95/191 12/99/192 86/100/193 83/96/194
f 13/101/195 37/97/196 84/98/197 87/102/198
f 88/103/199 89/104/200 91/105/201 90/106/202
f 89/104/203 88/103/204 108/107/205 109/108/206
f 90/106/207 91/109/208 93/110/209 92/111/210
f 92/111/211 93/110/212 95/112/213 94/113/214
f 94/113/215 95/112/216 97/114/217 96/115/218
f 96/115/219 97/116/220 99/117/221 98/118/222
f 98/118/223 99/117/224 101/119/225 100/120/226
f 100/120/227 101/119/228 103/121/229 102/122/230
f 102/122/231 103/123/232 105/124/233 104/125/234
f 104/125/235 105/124/236 107/126/237 106/187/238
f 106/127/239 107/128/240 111/129/241 110/182/242
f 109/131/243 108/186/244 112/132/245 113/183/246
f 110/130/247 111/184/248 113/133/249 112/180/250
f 2/134/251 1/135/252 88/103/253 90/106/254
f 3/136/255 2/134/256 90/106/257 92/111/258
f 4/137/259 3/136/260 92/111/261 94/113/262
f 5/138/263 4/137/264 94/113/265 96/115/266
f 6/139/267 5/138/268 96/115/269 98/118/270
f 7/140/271 6/139/272 98/118/273 100/120/274
f 8/141/275 7/140/276 100/120/277 102/122/278
f 9/142/279 8/141/280 102/122/281 104/125/282
f 10/188/283 9/142/284 104/125/285 106/187/286
f 1/135/287 11/144/288 108/107/289 88/103/290
f 108/186/291 11/185/292 13/179/293 112/132/294
f 112/180/295 13/146/296 12/145/297 110/130/298
f 10/143/299 106/127/300 110/182/301 12/181/302
f 91/147/303 89/148/304 14/149/305 15/150/306
f 93/151/307 91/147/308 15/150/309 16/152/310
f 95/153/311 93/151/312 16/152/313 17/154/314
f 97/155/315 95/153/316 17/154/317 18/156/318
f 99/157/319 97/155/320 18/156/321 19/158/322
f 101/159/323 99/160/324 19/161/325 20/162/326
f 103/163/327 101/159/328 20/162/329 21/164/330
f 105/165/331 103/163/332 21/164/333 22/166/334
f 107/167/335 105/165/336 22/166/337 23/168/338
f 89/148/339 109/169/340 24/170/341 14/149/342
f 111/171/343 107/167/344 23/168/345 25/172/346
f 109/169/347 113/173/348 26/174/349 24/170/350
f 113/175/351 111/176/352 25/177/353 26/178/354
