# This file uses centimeters as units for non-parametric coordinates.

mtllib body_door_cut_01.mtl
g default
v 0.000000 0.572200 0.040760
v -0.500980 0.423880 0.040760
v -0.500980 -1.428010 0.040760
v 0.500980 -1.428010 0.040760
v 0.500980 0.423880 0.040760
vt 0.000000 0.000000
vt 1.000000 0.000000
vt 0.500000 1.000000
vt 0.000000 0.000000
vt 1.000000 0.000000
vt 0.500000 1.000000
vt 0.000000 0.000000
vt 1.000000 0.000000
vt 0.500000 1.000000
vn 0.000000 0.000000 1.000000
vn 0.000000 0.000000 1.000000
vn 0.000000 0.000000 1.000000
vn 0.000000 0.000000 1.000000
vn 0.000000 0.000000 1.000000
vn 0.000000 0.000000 1.000000
vn 0.000000 0.000000 1.000000
vn 0.000000 0.000000 1.000000
vn 0.000000 0.000000 1.000000
s off
g doorway_01_cut_doorway1
usemtl doorway_01_cut_initialShadingGroup
f 2/1/1 3/2/2 1/3/3
f 3/4/4 4/5/5 1/6/6
f 4/7/7 5/8/8 1/9/9
