# This file uses centimeters as units for non-parametric coordinates.

mtllib body_door_frame_02.mtl
g default
v 0.389690 -1.425890 -0.029520
v -0.389680 -1.425890 -0.029520
v -0.389380 0.371910 -0.029520
v -0.309330 0.461980 -0.029520
v -0.224740 0.533450 -0.029520
v -0.118150 0.579340 -0.029520
v 0.000000 0.595160 -0.029520
v 0.118160 0.579340 -0.029520
v 0.224750 0.533450 -0.029520
v 0.309340 0.461980 -0.029520
v 0.389380 0.371910 -0.029520
v -0.474610 0.396000 -0.029520
v -0.383970 0.507790 -0.029520
v -0.278970 0.596520 -0.029520
v -0.146660 0.653480 -0.029520
v 0.000000 0.673110 -0.029520
v 0.146660 0.653480 -0.029520
v 0.278970 0.596520 -0.029520
v 0.383970 0.507790 -0.029520
v 0.474610 0.396000 -0.029520
v 0.474610 -1.500000 -0.029520
v -0.474610 -1.500000 -0.029520
v -0.383970 0.507790 0.061780
v -0.474610 0.396000 0.061780
v -0.278970 0.596520 0.061780
v -0.146660 0.653480 0.061780
v 0.000000 0.673110 0.061780
v 0.146660 0.653480 0.061780
v 0.278970 0.596520 0.061780
v 0.383970 0.507790 0.061780
v 0.474610 0.396000 0.061780
v 0.474610 -1.500000 0.061780
v -0.474610 -1.500000 0.061780
v -0.389380 0.371910 0.052650
v -0.397750 0.374110 0.061780
v -0.316060 0.466110 0.061780
v -0.309330 0.461980 0.052650
v -0.229630 0.539140 0.061780
v -0.224740 0.533450 0.052650
v -0.120720 0.586030 0.061780
v -0.118150 0.579340 0.052650
v 0.000000 0.602190 0.061780
v 0.000000 0.595160 0.052650
v 0.120730 0.586030 0.061780
v 0.118160 0.579340 0.052650
v 0.229640 0.539140 0.061780
v 0.224750 0.533450 0.052650
v 0.316070 0.466110 0.061780
v 0.309340 0.461980 0.052650
v 0.397760 0.374110 0.061780
v 0.389380 0.371910 0.052650
v 0.400680 -1.432150 0.057600
v 0.393570 -1.425890 0.050950
v -0.393570 -1.425890 0.050950
v -0.400680 -1.432150 0.057600
vt 0.263223 0.573037
vt 0.265181 0.532075
vt 0.286248 0.532075
vt 0.288200 0.573040
vt 0.263367 0.612843
vt 0.288048 0.612846
vt 0.263600 0.652726
vt 0.287804 0.652729
vt 0.263636 0.693026
vt 0.287757 0.693030
vt 0.264020 0.733136
vt 0.287362 0.733139
vt 0.307175 0.160013
vt 0.307339 0.119911
vt 0.329537 0.119914
vt 0.329692 0.160016
vt 0.306828 0.201255
vt 0.330034 0.201258
vt 0.306381 0.243823
vt 0.330474 0.243824
vt 0.266100 0.120158
vt 0.285333 0.120159
vt 0.331183 0.654019
vt 0.305670 0.654020
vt 0.089588 0.746679
vt 0.122100 0.845583
vt 0.371646 0.540249
vt 0.087699 0.056193
vt 0.105403 0.761419
vt 0.121546 0.762453
vt 0.105399 0.760863
vt 0.104850 0.678508
vt 0.120989 0.678981
vt 0.104228 0.585314
vt 0.120364 0.585218
vt 0.103527 0.480191
vt 0.119655 0.478905
vt 0.103512 0.477875
vt 0.102811 0.372768
vt 0.118946 0.372547
vt 0.102190 0.279628
vt 0.118321 0.278845
vt 0.101641 0.197297
vt 0.117764 0.195393
vt 0.101637 0.196742
vt 0.101095 0.115499
vt 0.387891 0.747955
vt 0.387722 0.056755
vt 0.391475 0.054375
vt 0.166023 0.759752
vt 0.055307 0.755950
vt 0.165455 0.674477
vt 0.164841 0.582459
vt 0.164148 0.478486
vt 0.163454 0.374519
vt 0.162841 0.282553
vt 0.162273 0.197302
vt 0.161680 0.108456
vt 0.343215 0.204476
vt 0.055555 0.027696
vt 0.218109 0.559941
vt 0.219321 0.591675
vt 0.196692 0.591644
vt 0.197624 0.560243
vt 0.219722 0.624067
vt 0.195843 0.623837
vt 0.218897 0.658148
vt 0.195739 0.657715
vt 0.217507 0.690422
vt 0.195564 0.689924
vt 0.216608 0.722063
vt 0.195048 0.721604
vt 0.528847 0.155953
vt 0.527948 0.190619
vt 0.504081 0.190206
vt 0.504383 0.155563
vt 0.526726 0.222141
vt 0.504149 0.221938
vt 0.525741 0.253850
vt 0.505121 0.253889
vt 0.526703 0.702593
vt 0.506592 0.702636
vt 0.211434 0.113976
vt 0.191450 0.114272
vt 0.476257 0.155901
vt 0.478062 0.693245
vt 0.423123 0.690777
vt 0.421335 0.158738
vt 0.484308 0.698080
vt 0.482470 0.151024
vt 0.345801 0.568882
vt 0.083954 0.053798
vt 0.369454 0.232735
vt 0.419969 0.028392
vt 0.117210 0.112308
vt 0.417393 0.756421
vt 0.166616 0.848617
vt 0.084850 0.747596
vt 0.383158 0.747020
vt 0.105945 0.842696
vn -0.715757 0.698349 0.000000
vn -0.998982 0.045100 0.000000
vn -0.998982 0.045100 0.000000
vn -0.715757 0.698349 0.000000
vn -0.523189 0.852217 0.000000
vn -0.715757 0.698349 0.000000
vn -0.715757 0.698349 0.000000
vn -0.523189 0.852217 0.000000
vn -0.264756 0.964315 0.000000
vn -0.523189 0.852217 0.000000
vn -0.523189 0.852217 0.000000
vn -0.264756 0.964315 0.000000
vn 0.000000 1.000000 0.000000
vn -0.264756 0.964315 0.000000
vn -0.264756 0.964315 0.000000
vn 0.000000 1.000000 0.000000
vn 0.264755 0.964316 0.000000
vn 0.000000 1.000000 0.000000
vn 0.000000 1.000000 0.000000
vn 0.264755 0.964316 0.000000
vn 0.523191 0.852216 0.000000
vn 0.264755 0.964316 0.000000
vn 0.264755 0.964316 0.000000
vn 0.523191 0.852216 0.000000
vn 0.715759 0.698348 0.000000
vn 0.523191 0.852216 0.000000
vn 0.523191 0.852216 0.000000
vn 0.715759 0.698348 0.000000
vn 0.998982 0.045100 0.000000
vn 0.715759 0.698348 0.000000
vn 0.715759 0.698348 0.000000
vn 0.998982 0.045100 0.000000
vn -0.998982 0.045100 0.000000
vn -0.998982 0.045100 0.000000
vn -1.000000 0.000000 0.000000
vn -1.000000 0.000000 0.000000
vn 1.000000 0.000000 0.000000
vn 1.000000 0.000000 0.000000
vn 0.998982 0.045100 0.000000
vn 0.998982 0.045100 0.000000
vn 0.710337 -0.037773 0.702847
vn 0.710476 -0.036564 0.702771
vn 0.713936 -0.002551 0.700206
vn 0.713936 -0.002551 0.700206
vn 0.710476 -0.036564 0.702771
vn 0.710337 -0.037773 0.702847
vn 0.535487 -0.548596 0.642103
vn 0.538260 -0.545315 0.642578
vn 0.538260 -0.545315 0.642578
vn 0.535487 -0.548596 0.642103
vn 0.406298 -0.661809 0.630024
vn 0.406295 -0.661811 0.630024
vn 0.406295 -0.661811 0.630024
vn 0.406298 -0.661809 0.630024
vn 0.208670 -0.760028 0.615479
vn 0.208666 -0.760029 0.615479
vn 0.208666 -0.760029 0.615479
vn 0.208670 -0.760028 0.615479
vn 0.000000 -0.792257 0.610187
vn 0.000000 -0.792257 0.610187
vn 0.000000 -0.792257 0.610187
vn 0.000000 -0.792257 0.610187
vn -0.208672 -0.760031 0.615474
vn -0.208664 -0.760034 0.615474
vn -0.208664 -0.760034 0.615474
vn -0.208672 -0.760031 0.615474
vn -0.406306 -0.661812 0.630016
vn -0.406294 -0.661820 0.630015
vn -0.406294 -0.661820 0.630015
vn -0.406306 -0.661812 0.630016
vn -0.535487 -0.548598 0.642101
vn -0.538260 -0.545317 0.642577
vn -0.538260 -0.545317 0.642577
vn -0.535487 -0.548598 0.642101
vn -0.710342 -0.037774 0.702842
vn -0.710481 -0.036565 0.702766
vn -0.710481 -0.036565 0.702766
vn -0.710342 -0.037774 0.702842
vn -0.713942 -0.002551 0.700200
vn -0.713942 -0.002551 0.700200
vn 0.026165 -0.001073 0.999657
vn 0.000000 0.000000 1.000000
vn 0.000000 0.000000 1.000000
vn 0.026091 -0.001070 0.999659
vn 0.000000 0.000000 1.000000
vn 0.000000 0.000000 1.000000
vn 0.000000 0.000000 1.000000
vn 0.000000 0.000000 1.000000
vn 0.000000 0.000000 1.000000
vn 0.000000 0.000000 1.000000
vn 0.000000 0.000000 1.000000
vn 0.000000 0.000000 1.000000
vn 0.000000 0.000000 1.000000
vn 0.000000 0.000000 1.000000
vn 0.000000 0.000000 1.000000
vn 0.000000 0.000000 1.000000
vn 0.000000 0.000000 1.000000
vn 0.000000 0.000000 1.000000
vn 0.000000 0.000000 1.000000
vn 0.000000 0.000000 1.000000
vn 0.000000 0.000000 1.000000
vn 0.000000 0.000000 1.000000
vn 0.000000 0.000000 1.000000
vn 0.000000 0.000000 1.000000
vn 0.000000 0.000000 1.000000
vn 0.000000 0.000000 1.000000
vn 0.000000 0.000000 1.000000
vn 0.000000 0.000000 1.000000
vn 0.000000 0.000000 1.000000
vn -0.026166 -0.001073 0.999657
vn -0.026091 -0.001070 0.999659
vn 0.000000 0.000000 1.000000
vn -0.028056 -0.001151 0.999606
vn -0.026091 -0.001070 0.999659
vn -0.026166 -0.001073 0.999657
vn -0.028056 -0.001151 0.999606
vn 0.026165 -0.001073 0.999657
vn 0.026091 -0.001070 0.999659
vn 0.028056 -0.001151 0.999606
vn 0.028056 -0.001151 0.999606
vn 0.998775 -0.043967 0.022712
vn 0.700371 -0.713779 0.000000
vn 0.700371 -0.713779 0.000000
vn 0.998774 -0.043986 0.022711
vn 0.700371 -0.713779 0.000000
vn 0.523190 -0.852216 0.000000
vn 0.523190 -0.852216 0.000000
vn 0.700371 -0.713779 0.000000
vn 0.523190 -0.852216 0.000000
vn 0.264755 -0.964316 0.000000
vn 0.264755 -0.964316 0.000000
vn 0.523190 -0.852216 0.000000
vn 0.264755 -0.964316 0.000000
vn 0.000000 -1.000000 0.000000
vn 0.000000 -1.000000 0.000000
vn 0.264755 -0.964316 0.000000
vn 0.000000 -1.000000 0.000000
vn -0.264754 -0.964316 0.000000
vn -0.264754 -0.964316 0.000000
vn 0.000000 -1.000000 0.000000
vn -0.264754 -0.964316 0.000000
vn -0.523192 -0.852215 0.000000
vn -0.523192 -0.852215 0.000000
vn -0.264754 -0.964316 0.000000
vn -0.523192 -0.852215 0.000000
vn -0.700371 -0.713779 0.000000
vn -0.700371 -0.713779 0.000000
vn -0.523192 -0.852215 0.000000
vn -0.700371 -0.713779 0.000000
vn -0.998775 -0.043968 0.022712
vn -0.998774 -0.043986 0.022711
vn -0.700371 -0.713779 0.000000
vn -0.998774 -0.043986 0.022711
vn -0.998775 -0.043968 0.022712
vn -0.999714 -0.001259 0.023884
vn -0.999714 -0.001259 0.023884
vn 0.999714 -0.001259 0.023884
vn 0.998775 -0.043967 0.022712
vn 0.998774 -0.043986 0.022711
vn 0.999714 -0.001259 0.023884
vn 0.000000 1.000000 0.000001
vn 0.000000 1.000000 0.000001
vn 0.000000 1.000000 0.000001
vn 0.000000 1.000000 0.000001
vn 0.000000 0.061473 0.998109
vn 0.000000 0.061473 0.998109
vn 0.000000 0.061473 0.998109
vn 0.000000 0.061473 0.998109
vn 0.000000 0.728521 0.685023
vn 0.000000 0.728521 0.685023
vn 0.000000 0.728521 0.685023
vn 0.000000 0.728521 0.685023
s off
g body_door_frame_02_doorway_03_windowFrame6
usemtl lambert2SG
f 13/1/1 12/2/2 24/3/3 23/4/4
f 14/5/5 13/1/6 23/4/7 25/6/8
f 15/7/9 14/5/10 25/6/11 26/8/12
f 16/9/13 15/7/14 26/8/15 27/10/16
f 17/11/17 16/9/18 27/10/19 28/12/20
f 18/13/21 17/14/22 28/15/23 29/16/24
f 19/17/25 18/13/26 29/16/27 30/18/28
f 20/19/29 19/17/30 30/18/31 31/20/32
f 24/3/33 12/2/34 22/21/35 33/22/36
f 32/23/37 21/24/38 20/19/39 31/20/40
f 34/25/41 35/98/42 55/92/43 54/28/44
f 35/26/45 34/100/46 37/29/47 36/30/48
f 36/30/49 37/31/50 39/32/51 38/33/52
f 38/33/53 39/32/54 41/34/55 40/35/56
f 40/35/57 41/34/58 43/36/59 42/37/60
f 42/37/61 43/38/62 45/39/63 44/40/64
f 44/40/65 45/39/66 47/41/67 46/42/68
f 46/42/69 47/41/70 49/43/71 48/44/72
f 48/44/73 49/45/74 51/46/75 50/95/76
f 50/47/77 51/99/78 53/48/79 52/49/80
f 35/26/81 36/30/82 23/50/83 24/97/84
f 36/30/85 38/33/86 25/52/87 23/50/88
f 38/33/89 40/35/90 26/53/91 25/52/92
f 40/35/93 42/37/94 27/54/95 26/53/96
f 42/37/97 44/40/98 28/55/99 27/54/100
f 44/40/101 46/42/102 29/56/103 28/55/104
f 46/42/105 48/44/106 30/57/107 29/56/108
f 48/44/109 50/95/110 31/58/111 30/57/112
f 32/94/113 31/96/114 50/47/115 52/49/116
f 35/98/117 24/51/118 33/60/119 55/92/120
f 3/61/121 4/62/122 37/63/123 34/64/124
f 4/62/125 5/65/126 39/66/127 37/63/128
f 5/65/129 6/67/130 41/68/131 39/66/132
f 6/67/133 7/69/134 43/70/135 41/68/136
f 7/69/137 8/71/138 45/72/139 43/70/140
f 8/73/141 9/74/142 47/75/143 45/76/144
f 9/74/145 10/77/146 49/78/147 47/75/148
f 10/77/149 11/79/150 51/80/151 49/78/152
f 51/80/153 11/79/154 1/81/155 53/82/156
f 2/83/157 3/61/158 34/64/159 54/84/160
f 54/85/161 53/86/162 1/87/163 2/88/164
f 52/93/165 55/27/166 33/91/167 32/59/168
f 52/89/169 53/86/170 54/85/171 55/90/172
