# This file uses centimeters as units for non-parametric coordinates.

mtllib body_window_cut_03.mtl
g body_window_cut_03_default1
v -0.279010 -0.519426 0.000000
v 0.255908 -0.519426 0.000000
v -0.279010 0.435923 0.000000
v -0.216861 0.516484 0.000000
v -0.086431 0.516484 0.000000
v 0.072146 0.516484 0.000000
v 0.179527 0.510997 0.000000
v 0.255908 0.443643 0.000000
v -0.020181 0.406578 0.000000
vt 0.000000 0.000000
vt 1.000000 0.000000
vt 1.000000 0.943797
vt 0.857214 1.000000
vt 0.656465 1.000000
vt 0.483869 0.900319
vt 0.339340 1.000000
vt 0.116182 1.000000
vt 0.000000 0.926937
vn 0.000000 -0.000000 1.000000
vn 0.000000 -0.000000 1.000000
vn 0.000000 -0.000000 1.000000
vn 0.000000 -0.000000 1.000000
vn 0.000000 -0.000000 1.000000
vn 0.000000 -0.000000 1.000000
vn 0.000000 -0.000000 1.000000
vn 0.000000 -0.000000 1.000000
vn 0.000000 -0.000000 1.000000
s off
g body_window_cut_03_body_window_cut_03_window_frame_03_cut_pPlane4 body_window_cut_03_group1 body_window_cut_03_group3 body_window_cut_03_polySurface1
usemtl initialShadingGroup
f 1/1/1 2/2/2 8/3/3 7/4/4 6/5/5 9/6/6 5/7/7 4/8/8 3/9/9
