# This file uses centimeters as units for non-parametric coordinates.

mtllib roof_bottom_extension_01.mtl
g default
v 1.000000 0.000000 0.000000
v -1.000000 0.000000 0.000000
v -1.000000 0.000104 0.229081
v 1.000000 0.000104 0.229081
v 0.000000 0.000000 0.000000
v 0.000000 0.000104 0.229081
v 0.500000 0.000000 0.000000
v -0.500000 0.000000 0.000000
v -0.500000 0.000104 0.229081
v 0.500000 0.000104 0.229081
vn 0.000000 1.000000 -0.000454
vn 0.000000 1.000000 -0.000454
vn 0.000000 1.000000 -0.000454
vn 0.000000 1.000000 -0.000454
vn 0.000000 1.000000 -0.000454
vn 0.000000 1.000000 -0.000454
vn 0.000000 1.000000 -0.000443
vn 0.000000 1.000000 -0.000443
vn 0.000000 1.000000 -0.000454
vn 0.000000 1.000000 -0.000454
vn 0.000000 1.000000 -0.000454
vn 0.000000 1.000000 -0.000454
vn 0.000000 1.000000 -0.000454
vn 0.000000 1.000000 -0.000443
vn 0.000000 1.000000 -0.000443
vn 0.000000 1.000000 -0.000454
s off
g roof_bottom_extension_01_roof_extension_polySurface12
usemtl initialShadingGroup
f 10//1 7//2 5//3 6//4
f 9//5 8//6 2//7 3//8
f 9//9 6//10 5//11 8//12
f 10//13 4//14 1//15 7//16
