# This file uses centimeters as units for non-parametric coordinates.

mtllib roof_top_rail_tip_01.mtl
g default
v -0.111510 -0.221310 0.224350
v -0.035500 0.007770 0.224350
v 0.041070 0.007770 0.224350
v 0.116110 -0.221310 0.223940
v -0.035500 0.045710 0.224350
v -0.024140 0.062420 0.224350
v 0.029710 0.062420 0.224350
v 0.041070 0.045710 0.224350
v -0.106230 -0.048660 0.224350
v -0.063790 0.010690 0.224350
v 0.068380 0.007770 0.224350
v 0.110820 -0.048660 0.224350
v -0.035500 0.007770 0.000220
v 0.041070 0.007770 0.000220
v -0.035500 0.117190 0.112660
v -0.024140 0.128560 0.117490
v 0.029710 0.128560 0.117490
v 0.041070 0.117190 0.112660
v -0.035500 0.117190 0.097640
v -0.024140 0.128560 0.092680
v 0.029710 0.128560 0.092680
v 0.041070 0.117190 0.097640
v -0.035500 0.045710 0.000220
v -0.024140 0.062600 0.000220
v 0.029710 0.062600 0.000220
v 0.041070 0.045710 0.000220
v -0.106230 -0.048660 0.000220
v -0.063790 0.007770 0.000220
v 0.068380 0.007770 0.000220
v 0.110820 -0.048660 0.000220
v 0.002300 -0.339980 0.224150
v -0.114270 -0.232220 0.208020
v 0.002300 -0.342240 0.207830
v 0.118860 -0.232220 0.207580
v -0.110160 -0.177070 0.224350
v 0.115240 -0.193110 0.224010
v -0.149340 -0.371040 0.000220
v 0.155080 -0.369670 0.000900
v 0.117150 -0.193170 0.207680
v -0.111850 -0.176880 0.208020
v -0.025560 -0.394610 0.133200
v 0.028580 -0.394610 0.133200
v -0.024060 0.058500 0.992780
v -0.024930 0.058500 0.133200
v 0.028580 0.058500 0.133200
v 0.028580 0.058500 0.992780
v -0.020350 -0.016710 0.684720
v -0.024450 -0.001500 0.681560
v -0.020350 -0.005400 0.935310
v -0.025560 -0.382420 0.162890
v -0.021140 -0.359550 0.210490
v 0.028580 -0.382420 0.162890
v 0.024550 -0.359550 0.210490
v 0.024550 -0.016710 0.684720
v 0.028580 -0.001500 0.681560
v 0.024550 -0.005400 0.935310
v -0.021090 -0.269610 0.286620
v -0.025350 -0.261030 0.271740
v 0.024550 -0.258860 0.292140
v 0.028580 -0.248480 0.278430
v -0.024400 0.023680 0.983180
v -0.024320 0.001160 0.955380
v -0.024400 0.007000 0.955690
v 0.028580 0.023680 0.983180
v 0.028580 0.007000 0.955690
v 0.028580 0.001160 0.955380
v -0.024930 0.058500 -0.072400
v -0.025560 -0.394610 -0.072400
v 0.028580 0.058500 -0.072400
v 0.028580 -0.394610 -0.072400
vt 0.779976 0.977592
vt 0.777244 0.981369
vt 0.822030 0.981273
vt 0.835063 0.980651
vt 0.840251 0.980420
vt 0.840996 0.930847
vt 0.835804 0.930438
vt 0.875855 0.980772
vt 0.880844 0.981112
vt 0.881050 0.930877
vt 0.876103 0.931186
vt 0.196625 0.155778
vt 0.197286 0.153088
vt 0.196875 0.162715
vt 0.196416 0.162730
vt 0.847096 0.979994
vt 0.851837 0.979586
vt 0.855882 0.957311
vt 0.854552 0.957033
vt 0.855924 0.954435
vt 0.854578 0.954708
vt 0.864269 0.979714
vt 0.868979 0.980224
vt 0.862026 0.957112
vt 0.860689 0.957359
vt 0.862047 0.954776
vt 0.860708 0.954483
vt 0.852504 0.932080
vt 0.847788 0.931515
vt 0.869299 0.931691
vt 0.864595 0.932180
vt 0.822060 0.929810
vt 0.893873 0.981708
vt 0.893926 0.930252
vt 0.160176 0.221602
vt 0.178584 0.221602
vt 0.175853 0.225721
vt 0.162907 0.225721
vt 0.143172 0.198339
vt 0.142227 0.166684
vt 0.195353 0.198339
vt 0.160176 0.212249
vt 0.178584 0.212249
vt 0.185150 0.212249
vt 0.153375 0.212969
vt 0.141902 0.155778
vt 0.141239 0.153088
vt 0.169263 0.125967
vt 0.169263 0.126524
vt 0.141820 0.166730
vt 0.941301 0.977974
vt 0.960651 0.930238
vt 0.758710 0.929565
vt 0.944278 0.981748
vt 0.076711 0.304680
vt 0.096202 0.162530
vt 0.092772 0.091567
vt 0.087012 0.084492
vt 0.075077 0.082093
vt 0.075077 0.082093
vt 0.087012 0.084492
vt 0.092772 0.091567
vt 0.096202 0.162530
vt 0.076711 0.304680
vt 0.101400 0.161673
vt 0.097053 0.096812
vt 0.094769 0.091632
vt 0.446404 0.044593
vt 0.436249 0.044436
vt 0.436249 0.042430
vt 0.446404 0.042595
vt 0.446404 0.149693
vt 0.436249 0.149802
vt 0.436249 0.142893
vt 0.446404 0.142803
vt 0.202117 0.296067
vt 0.156058 0.266486
vt 0.159587 0.262909
vt 0.194197 0.283799
vt 0.094769 0.091632
vt 0.097053 0.096812
vt 0.101400 0.161673
vt 0.446404 0.153891
vt 0.436249 0.153999
vt 0.436249 0.126226
vt 0.446404 0.127617
vt 0.446404 0.073165
vt 0.436249 0.072968
vt 0.436249 0.039782
vt 0.436249 0.037910
vt 0.446404 0.037971
vt 0.446404 0.039893
vt 0.160367 0.268188
vt 0.202117 0.296067
vt 0.194197 0.283799
vt 0.163274 0.264312
vt 0.076711 0.304680
vt 0.206344 0.303728
vt 0.202117 0.296067
vt 0.160367 0.268188
vt 0.206344 0.303728
vt 0.076711 0.304680
vt 0.156058 0.266486
vt 0.202117 0.296067
vt 0.076711 0.304680
vt 0.076711 0.304680
vt 0.436249 0.003766
vt 0.446404 0.003825
vt 0.076697 0.307553
vt 0.205459 0.305722
vt 0.205895 0.331749
vt 0.077139 0.333909
vt 0.076697 0.307553
vt 0.205459 0.305722
vt 0.205895 0.331749
vt 0.077139 0.333909
vn -0.996023 0.083432 0.031258
vn -0.993179 0.033607 0.111648
vn -0.995920 0.086216 0.026647
vn 0.051577 0.998648 -0.006509
vn 0.051577 0.998648 -0.006509
vn 0.051577 0.998648 -0.006509
vn 0.051577 0.998648 -0.006509
vn 0.000000 1.000000 0.000000
vn 0.000000 1.000000 0.000000
vn 0.000000 1.000000 0.000000
vn 0.000000 1.000000 0.000000
vn 0.990962 0.037642 0.128754
vn 0.990962 0.037642 0.128754
vn 0.995871 0.084098 0.034187
vn 0.992248 0.032490 0.119955
vn -0.757089 0.552831 0.348130
vn -0.757089 0.552831 0.348130
vn -0.757089 0.552831 0.348130
vn -0.757089 0.552831 0.348130
vn -0.707100 0.707114 0.000000
vn -0.707100 0.707114 0.000000
vn -0.707100 0.707114 0.000000
vn -0.707100 0.707114 0.000000
vn 0.757054 0.552888 0.348114
vn 0.757054 0.552888 0.348114
vn 0.757054 0.552888 0.348114
vn 0.757054 0.552888 0.348114
vn 0.707100 0.707114 0.000000
vn 0.707100 0.707114 0.000000
vn 0.707100 0.707114 0.000000
vn 0.707100 0.707114 0.000000
vn -0.750293 0.535546 -0.387622
vn -0.750293 0.535546 -0.387622
vn -0.750293 0.535546 -0.387622
vn -0.750293 0.535546 -0.387622
vn 0.750292 0.535546 -0.387623
vn 0.750292 0.535546 -0.387623
vn 0.750292 0.535546 -0.387623
vn 0.750292 0.535546 -0.387623
vn 1.000000 0.000005 0.000000
vn 1.000000 0.000001 0.000000
vn 1.000000 0.000002 0.000000
vn 1.000000 0.000005 0.000000
vn -1.000000 0.000000 0.000000
vn -1.000000 0.000000 0.000000
vn -1.000000 0.000000 0.000000
vn -1.000000 0.000000 0.000000
vn 0.000000 1.000000 0.000000
vn 0.000000 1.000000 0.000000
vn 0.000000 1.000000 0.000000
vn 0.000000 1.000000 0.000000
vn 0.000000 0.850337 0.526238
vn 0.000000 0.850337 0.526238
vn 0.000000 0.850337 0.526238
vn 0.000000 0.850337 0.526238
vn 0.000002 0.814090 -0.580738
vn 0.000002 0.814090 -0.580738
vn 0.000002 0.814090 -0.580738
vn 0.000002 0.814090 -0.580738
vn -0.806484 0.591243 -0.003854
vn -0.806484 0.591243 -0.003854
vn -0.806484 0.591243 -0.003854
vn -0.806484 0.591243 -0.003854
vn 0.799186 0.601084 0.000000
vn 0.799186 0.601084 0.000000
vn 0.799186 0.601084 0.000000
vn 0.799186 0.601084 0.000000
vn 1.000000 0.000002 0.000000
vn 1.000000 0.000001 0.000000
vn 1.000000 0.000000 0.000000
vn 1.000000 0.000000 0.000000
vn -1.000000 0.000000 0.000000
vn -1.000000 0.000000 0.000000
vn -1.000000 0.000000 0.000000
vn -1.000000 0.000000 0.000000
vn 0.000000 0.000000 1.000000
vn 0.000000 0.000000 1.000000
vn 0.000000 0.000000 1.000000
vn 0.000000 0.000000 1.000000
vn 0.000653 -0.001125 0.999999
vn 0.000918 -0.001194 0.999999
vn 0.000946 -0.001184 0.999999
vn 0.000653 -0.001125 0.999999
vn 0.000000 0.000000 1.000000
vn 0.000000 0.000000 1.000000
vn 0.000000 0.000000 1.000000
vn 0.000000 0.000000 1.000000
vn 0.000000 0.000000 1.000000
vn 0.000653 -0.001125 0.999999
vn 0.000000 0.000000 1.000000
vn 0.000653 -0.001125 0.999999
vn 0.000653 -0.001125 0.999999
vn 0.000000 0.000000 1.000000
vn 0.000000 0.000000 1.000000
vn 0.000653 -0.001125 0.999999
vn 0.000000 0.000000 1.000000
vn 0.000000 0.000000 1.000000
vn -0.665511 -0.670982 0.326923
vn -0.665510 -0.670982 0.326923
vn -0.665511 -0.670982 0.326923
vn -0.665510 -0.670982 0.326923
vn 0.666228 -0.670482 0.326488
vn 0.666228 -0.670482 0.326488
vn 0.666228 -0.670482 0.326488
vn 0.666228 -0.670482 0.326488
vn 0.001807 0.000000 0.999998
vn 0.001807 0.000000 0.999998
vn 0.001807 0.000000 0.999998
vn -0.993179 0.033607 0.111648
vn -0.996023 0.083432 0.031258
vn -0.991746 0.037657 0.122560
vn -0.991746 0.037657 0.122560
vn 0.995793 0.086602 0.029953
vn 0.995799 0.086438 0.030206
vn 0.995871 0.084098 0.034187
vn 0.995793 0.086602 0.029953
vn 0.000946 -0.001184 0.999999
vn 0.000918 -0.001194 0.999999
vn 0.001636 -0.000937 0.999998
vn 0.001636 -0.000937 0.999998
vn -0.996023 0.083432 0.031258
vn -0.995920 0.086216 0.026647
vn -0.995911 0.086402 0.026390
vn -0.995911 0.086402 0.026390
vn 0.995871 0.084098 0.034187
vn 0.995799 0.086438 0.030206
vn 0.992248 0.032490 0.119955
vn -0.999999 0.001541 0.000392
vn -0.999782 -0.018935 0.008816
vn -0.999889 -0.014845 0.001145
vn -0.999997 0.002520 0.000698
vn -0.999997 0.002522 0.000697
vn 1.000000 0.000000 0.000000
vn 1.000000 0.000000 0.000000
vn 0.999856 -0.016979 0.000453
vn 0.999753 -0.020897 0.007591
vn 1.000000 -0.000003 0.000000
vn -0.963765 -0.246047 0.103043
vn -0.958423 -0.285243 0.007843
vn -0.959107 -0.282936 0.007858
vn -0.999889 -0.014845 0.001145
vn -0.999782 -0.018935 0.008816
vn 0.000000 -0.950502 0.310717
vn 0.000000 -0.950502 0.310717
vn 0.000000 -0.845577 0.533854
vn 0.000000 -0.845600 0.533816
vn 0.000000 -0.911449 0.411413
vn 0.000000 -0.911421 0.411476
vn 0.019526 -0.739207 0.673195
vn 0.019497 -0.739513 0.672860
vn 0.979230 -0.130415 0.155243
vn 0.999866 -0.013040 0.009894
vn 0.970843 -0.195494 0.138727
vn 0.979230 -0.130415 0.155243
vn 0.999753 -0.020897 0.007591
vn 0.999856 -0.016979 0.000453
vn 0.960080 -0.279626 0.007453
vn 0.959376 -0.282031 0.007518
vn 0.966789 -0.237702 0.093898
vn 0.000000 -0.998660 0.051750
vn 0.000000 -0.998660 0.051750
vn 0.000000 -0.911421 0.411476
vn 0.000000 -0.911449 0.411413
vn 0.019497 -0.739513 0.672860
vn 0.019526 -0.739207 0.673195
vn 0.062041 -0.817235 0.572956
vn 0.058171 -0.798385 0.599330
vn 0.045852 -0.926882 0.372543
vn 0.045837 -0.926926 0.372433
vn 0.000000 -0.998983 0.045094
vn 0.000000 -0.998983 0.045094
vn 0.000000 -0.265788 0.964032
vn 0.000000 -0.265788 0.964031
vn 0.000000 -0.265788 0.964031
vn 0.000000 -0.265788 0.964032
vn -0.999874 -0.011507 0.010913
vn -0.974670 -0.146607 0.168891
vn -0.974670 -0.146607 0.168891
vn -0.965740 -0.211230 0.150758
vn -0.999999 0.001541 0.000392
vn -0.999999 0.001395 0.000027
vn -0.999999 0.001432 0.000132
vn -0.999874 -0.011507 0.010913
vn 1.000000 0.000000 0.000000
vn 1.000000 -0.000003 0.000000
vn 0.999866 -0.013040 0.009894
vn 1.000000 0.000000 0.000000
vn 0.000000 -0.845600 0.533816
vn 0.000000 -0.845577 0.533854
vn 0.000000 -0.777073 0.629411
vn 0.000000 -0.777072 0.629411
vn -0.999997 0.002520 0.000698
vn -0.999889 -0.014845 0.001145
vn -0.959107 -0.282936 0.007858
vn 1.000000 0.000000 0.000000
vn 0.960080 -0.279626 0.007453
vn 0.999856 -0.016979 0.000453
vn -0.999999 0.001541 0.000392
vn -0.999874 -0.011507 0.010913
vn -0.999782 -0.018935 0.008816
vn -0.999782 -0.018935 0.008816
vn -0.999874 -0.011507 0.010913
vn -0.965740 -0.211230 0.150758
vn -0.963765 -0.246047 0.103043
vn 0.966789 -0.237702 0.093898
vn 0.970843 -0.195494 0.138727
vn 0.999866 -0.013040 0.009894
vn 0.999753 -0.020897 0.007591
vn 0.045837 -0.926926 0.372433
vn 0.045852 -0.926882 0.372543
vn 0.058171 -0.798385 0.599330
vn 0.062041 -0.817235 0.572956
vn 0.999753 -0.020897 0.007591
vn 0.999866 -0.013040 0.009894
vn 1.000000 -0.000003 0.000000
vn 0.000001 1.000000 0.000000
vn 0.000001 1.000000 0.000000
vn 0.000001 1.000000 0.000000
vn 0.000001 1.000000 0.000000
vn 0.000000 0.000000 -1.000000
vn 0.000000 0.000000 -1.000000
vn 0.000000 0.000000 -1.000000
vn 0.000000 0.000000 -1.000000
vn -0.999999 0.001395 0.000027
vn -0.999999 0.001541 0.000392
vn -0.999999 0.001386 0.000000
vn -0.999999 0.001386 0.000000
vn 0.000001 1.000000 0.000000
vn 0.000001 1.000000 0.000000
vn 0.000000 1.000000 0.000000
vn 0.000000 1.000000 0.000000
vn 1.000000 -0.000003 0.000000
vn 1.000000 0.000000 0.000000
vn 1.000000 0.000000 0.000000
vn 1.000000 0.000000 0.000000
vn 0.000000 -0.998660 0.051750
vn 0.000000 -0.998660 0.051750
vn 0.000000 -1.000000 0.000000
vn 0.000000 -1.000000 0.000000
s off
g roof_top_rail_tip_02_roof_top_rail_tip_01_roof_top_tip_roof_railing9
usemtl roof_top_rail_tip_02_roof_top_rail_01_lambert2SG
f 40/1/1 35/2/2 9/3/3
f 10/4/4 2/5/5 13/6/6 28/7/7
f 3/8/8 11/9/9 29/10/10 14/11/11
f 4/12/12 34/13/13 39/14/14 36/15/15
f 5/16/16 6/17/17 16/18/18 15/19/19
f 15/19/20 16/18/21 20/20/22 19/21/23
f 7/22/24 8/23/25 18/24/26 17/25/27
f 17/25/28 18/24/29 22/26/30 21/27/31
f 19/21/32 20/20/33 24/28/34 23/29/35
f 21/27/36 22/26/37 26/30/38 25/31/39
f 18/24/40 8/23/41 26/30/42 22/26/43
f 2/5/44 5/16/45 23/29/46 13/6/47
f 16/18/48 17/25/49 21/27/50 20/20/51
f 16/18/52 6/17/53 7/22/54 17/25/55
f 24/28/56 20/20/57 21/27/58 25/31/59
f 9/3/60 10/4/61 28/7/62 27/32/63
f 11/9/64 12/33/65 30/34/66 29/10/67
f 26/30/68 8/23/69 3/8/70 14/11/71
f 5/16/72 15/19/73 19/21/74 23/29/75
f 5/35/76 8/36/77 7/37/78 6/38/79
f 9/39/80 35/40/81 36/15/82 12/41/83
f 2/42/84 3/43/85 8/36/86 5/35/87
f 3/43/88 12/41/89 11/44/90
f 9/39/91 12/41/92 3/43/93 2/42/94
f 9/39/95 2/42/96 10/45/97
f 1/46/98 32/47/99 33/48/100 31/49/101
f 33/48/102 34/13/103 4/12/104 31/49/105
f 4/12/106 1/46/107 31/49/108
f 35/40/109 40/50/110 32/47/111 1/46/112
f 30/34/113 12/33/114 39/51/115 38/52/116
f 36/15/117 35/40/118 1/46/119 4/12/120
f 40/1/121 9/3/122 27/32/123 37/53/124
f 39/51/125 12/33/126 36/54/127
f 44/55/128 48/56/129 63/57/130 61/58/131 43/59/132
f 46/60/133 64/61/134 65/62/135 55/63/136 45/64/137
f 47/65/138 49/66/139 62/67/140 63/57/141 48/56/142
f 49/68/143 56/69/144 66/70/145 62/71/146
f 50/72/147 52/73/148 53/74/149 51/75/150
f 52/76/151 60/77/152 59/78/153 53/79/154
f 55/63/155 65/62/156 66/80/157 56/81/158 54/82/159
f 41/83/160 42/84/161 52/73/162 50/72/163
f 51/75/164 53/74/165 59/85/166 57/86/167
f 47/87/168 54/88/169 56/69/170 49/68/171
f 64/89/172 46/90/173 43/91/174 61/92/175
f 58/93/176 50/94/177 51/95/178 57/96/179
f 44/97/180 41/98/181 50/99/182 58/100/183
f 42/101/184 45/102/185 60/103/186 52/104/187
f 62/71/188 66/70/189 64/89/190 61/92/191
f 61/58/192 63/57/193 62/67/194
f 64/61/195 66/80/196 65/62/197
f 44/105/198 58/93/199 48/56/200
f 48/56/201 58/93/202 57/96/203 47/65/204
f 54/82/205 59/78/206 60/77/207 55/63/208
f 54/88/209 47/87/210 57/86/211 59/85/212
f 55/63/213 60/77/214 45/106/215
f 43/91/216 46/90/217 45/107/218 44/108/219
f 68/109/220 67/110/221 69/111/222 70/112/223
f 41/113/224 44/114/225 67/110/226 68/109/227
f 44/114/228 45/115/229 69/111/230 67/110/231
f 45/115/232 42/116/233 70/112/234 69/111/235
f 42/116/236 41/113/237 68/109/238 70/112/239
