# This file uses centimeters as units for non-parametric coordinates.

mtllib roof_top_rail_tip_02.mtl
g default
v -0.111510 -0.221310 0.224350
v -0.035500 0.007770 0.224350
v 0.041070 0.007770 0.224350
v 0.116110 -0.221310 0.223940
v -0.035500 0.045710 0.224350
v -0.024140 0.062420 0.224350
v 0.029710 0.062420 0.224350
v 0.041070 0.045710 0.224350
v -0.106230 -0.048660 0.224350
v -0.063790 0.010690 0.224350
v 0.068380 0.007770 0.224350
v 0.110820 -0.048660 0.224350
v -0.035500 0.007770 0.000220
v 0.041070 0.007770 0.000220
v -0.035500 0.117190 0.112660
v -0.024140 0.128560 0.117490
v 0.029710 0.128560 0.117490
v 0.041070 0.117190 0.112660
v -0.035500 0.117190 0.097640
v -0.024140 0.128560 0.092680
v 0.029710 0.128560 0.092680
v 0.041070 0.117190 0.097640
v -0.035500 0.045710 0.000220
v -0.024140 0.062600 0.000220
v 0.029710 0.062600 0.000220
v 0.041070 0.045710 0.000220
v -0.106230 -0.048660 0.000220
v -0.063790 0.007770 0.000220
v 0.068380 0.007770 0.000220
v 0.110820 -0.048660 0.000220
v 0.002300 -0.339980 0.224150
v -0.114270 -0.232220 0.208020
v 0.002300 -0.342240 0.207830
v 0.118860 -0.232220 0.207580
v -0.110160 -0.177070 0.224350
v 0.115240 -0.193110 0.224010
v -0.149340 -0.371040 0.000220
v 0.155080 -0.369670 0.000900
v 0.117150 -0.193170 0.207680
v -0.111850 -0.176880 0.208020
vt 0.779976 0.977592
vt 0.777244 0.981369
vt 0.822030 0.981273
vt 0.835063 0.980651
vt 0.840251 0.980420
vt 0.840996 0.930847
vt 0.835804 0.930438
vt 0.875855 0.980772
vt 0.880844 0.981112
vt 0.881050 0.930877
vt 0.876103 0.931186
vt 0.196625 0.155778
vt 0.197286 0.153088
vt 0.941301 0.977974
vt 0.944278 0.981748
vt 0.847096 0.979994
vt 0.851837 0.979586
vt 0.855882 0.957311
vt 0.854552 0.957033
vt 0.855924 0.954435
vt 0.854578 0.954708
vt 0.864269 0.979714
vt 0.868979 0.980224
vt 0.862026 0.957112
vt 0.860689 0.957359
vt 0.862047 0.954776
vt 0.860708 0.954483
vt 0.852504 0.932080
vt 0.847788 0.931515
vt 0.869299 0.931691
vt 0.864595 0.932180
vt 0.822060 0.929810
vt 0.893873 0.981708
vt 0.893926 0.930252
vt 0.196875 0.162715
vt 0.196416 0.162730
vt 0.160176 0.221602
vt 0.178584 0.221602
vt 0.960651 0.930238
vt 0.758710 0.929565
vt 0.175853 0.225721
vt 0.162907 0.225721
vt 0.143172 0.198339
vt 0.142227 0.166684
vt 0.195353 0.198339
vt 0.160176 0.212249
vt 0.178584 0.212249
vt 0.185150 0.212249
vt 0.153375 0.212969
vt 0.141902 0.155778
vt 0.141239 0.153088
vt 0.169263 0.125967
vt 0.169263 0.126524
vt 0.141820 0.166730
vn -0.996023 0.083432 0.031258
vn -0.993179 0.033607 0.111648
vn -0.995920 0.086216 0.026647
vn 0.051577 0.998648 -0.006509
vn 0.051577 0.998648 -0.006509
vn 0.051577 0.998648 -0.006509
vn 0.051577 0.998648 -0.006509
vn 0.000000 1.000000 0.000000
vn 0.000000 1.000000 0.000000
vn 0.000000 1.000000 0.000000
vn 0.000000 1.000000 0.000000
vn 0.990962 0.037642 0.128754
vn 0.990962 0.037642 0.128754
vn 0.995871 0.084098 0.034187
vn 0.992248 0.032490 0.119955
vn -0.757089 0.552831 0.348130
vn -0.757089 0.552831 0.348130
vn -0.757089 0.552831 0.348130
vn -0.757089 0.552831 0.348130
vn -0.707100 0.707114 0.000000
vn -0.707100 0.707114 0.000000
vn -0.707100 0.707114 0.000000
vn -0.707100 0.707114 0.000000
vn 0.757054 0.552888 0.348114
vn 0.757054 0.552888 0.348114
vn 0.757054 0.552888 0.348114
vn 0.757054 0.552888 0.348114
vn 0.707100 0.707114 0.000000
vn 0.707100 0.707114 0.000000
vn 0.707100 0.707114 0.000000
vn 0.707100 0.707114 0.000000
vn -0.750293 0.535546 -0.387622
vn -0.750293 0.535546 -0.387622
vn -0.750293 0.535546 -0.387622
vn -0.750293 0.535546 -0.387622
vn 0.750292 0.535546 -0.387623
vn 0.750292 0.535546 -0.387623
vn 0.750292 0.535546 -0.387623
vn 0.750292 0.535546 -0.387623
vn 1.000000 0.000005 0.000000
vn 1.000000 0.000001 0.000000
vn 1.000000 0.000002 0.000000
vn 1.000000 0.000005 0.000000
vn -1.000000 0.000000 0.000000
vn -1.000000 0.000000 0.000000
vn -1.000000 0.000000 0.000000
vn -1.000000 0.000000 0.000000
vn 0.000000 1.000000 0.000000
vn 0.000000 1.000000 0.000000
vn 0.000000 1.000000 0.000000
vn 0.000000 1.000000 0.000000
vn 0.000000 0.850337 0.526238
vn 0.000000 0.850337 0.526238
vn 0.000000 0.850337 0.526238
vn 0.000000 0.850337 0.526238
vn 0.000002 0.814090 -0.580738
vn 0.000002 0.814090 -0.580738
vn 0.000002 0.814090 -0.580738
vn 0.000002 0.814090 -0.580738
vn -0.806484 0.591243 -0.003854
vn -0.806484 0.591243 -0.003854
vn -0.806484 0.591243 -0.003854
vn -0.806484 0.591243 -0.003854
vn 0.799186 0.601084 0.000000
vn 0.799186 0.601084 0.000000
vn 0.799186 0.601084 0.000000
vn 0.799186 0.601084 0.000000
vn 1.000000 0.000002 0.000000
vn 1.000000 0.000001 0.000000
vn 1.000000 0.000000 0.000000
vn 1.000000 0.000000 0.000000
vn -1.000000 0.000000 0.000000
vn -1.000000 0.000000 0.000000
vn -1.000000 0.000000 0.000000
vn -1.000000 0.000000 0.000000
vn 0.000000 0.000000 1.000000
vn 0.000000 0.000000 1.000000
vn 0.000000 0.000000 1.000000
vn 0.000000 0.000000 1.000000
vn 0.000653 -0.001125 0.999999
vn 0.000918 -0.001194 0.999999
vn 0.000946 -0.001184 0.999999
vn 0.000653 -0.001125 0.999999
vn 0.000000 0.000000 1.000000
vn 0.000000 0.000000 1.000000
vn 0.000000 0.000000 1.000000
vn 0.000000 0.000000 1.000000
vn 0.000000 0.000000 1.000000
vn 0.000653 -0.001125 0.999999
vn 0.000000 0.000000 1.000000
vn 0.000653 -0.001125 0.999999
vn 0.000653 -0.001125 0.999999
vn 0.000000 0.000000 1.000000
vn 0.000000 0.000000 1.000000
vn 0.000653 -0.001125 0.999999
vn 0.000000 0.000000 1.000000
vn 0.000000 0.000000 1.000000
vn -0.665511 -0.670982 0.326923
vn -0.665510 -0.670982 0.326923
vn -0.665511 -0.670982 0.326923
vn -0.665510 -0.670982 0.326923
vn 0.666228 -0.670482 0.326488
vn 0.666228 -0.670482 0.326488
vn 0.666228 -0.670482 0.326488
vn 0.666228 -0.670482 0.326488
vn 0.001807 -0.000000 0.999998
vn 0.001807 -0.000000 0.999998
vn 0.001807 -0.000000 0.999998
vn -0.993179 0.033607 0.111648
vn -0.996023 0.083432 0.031258
vn -0.991746 0.037657 0.122560
vn -0.991746 0.037657 0.122560
vn 0.995793 0.086602 0.029953
vn 0.995799 0.086438 0.030206
vn 0.995871 0.084098 0.034187
vn 0.995793 0.086602 0.029953
vn 0.000946 -0.001184 0.999999
vn 0.000918 -0.001194 0.999999
vn 0.001636 -0.000937 0.999998
vn 0.001636 -0.000937 0.999998
vn -0.996023 0.083432 0.031258
vn -0.995920 0.086216 0.026647
vn -0.995911 0.086402 0.026390
vn -0.995911 0.086402 0.026390
vn 0.995871 0.084098 0.034187
vn 0.995799 0.086438 0.030206
vn 0.992248 0.032490 0.119955
s off
g roof_top_rail_tip_01_roof_top_tip_roof_railing8
usemtl roof_top_rail_01_lambert2SG
f 40/1/1 35/2/2 9/3/3
f 10/4/4 2/5/5 13/6/6 28/7/7
f 3/8/8 11/9/9 29/10/10 14/11/11
f 4/12/12 34/13/13 39/35/14 36/36/15
f 5/16/16 6/17/17 16/18/18 15/19/19
f 15/19/20 16/18/21 20/20/22 19/21/23
f 7/22/24 8/23/25 18/24/26 17/25/27
f 17/25/28 18/24/29 22/26/30 21/27/31
f 19/21/32 20/20/33 24/28/34 23/29/35
f 21/27/36 22/26/37 26/30/38 25/31/39
f 18/24/40 8/23/41 26/30/42 22/26/43
f 2/5/44 5/16/45 23/29/46 13/6/47
f 16/18/48 17/25/49 21/27/50 20/20/51
f 16/18/52 6/17/53 7/22/54 17/25/55
f 24/28/56 20/20/57 21/27/58 25/31/59
f 9/3/60 10/4/61 28/7/62 27/32/63
f 11/9/64 12/33/65 30/34/66 29/10/67
f 26/30/68 8/23/69 3/8/70 14/11/71
f 5/16/72 15/19/73 19/21/74 23/29/75
f 5/37/76 8/38/77 7/41/78 6/42/79
f 9/43/80 35/44/81 36/36/82 12/45/83
f 2/46/84 3/47/85 8/38/86 5/37/87
f 3/47/88 12/45/89 11/48/90
f 9/43/91 12/45/92 3/47/93 2/46/94
f 9/43/95 2/46/96 10/49/97
f 1/50/98 32/51/99 33/52/100 31/53/101
f 33/52/102 34/13/103 4/12/104 31/53/105
f 4/12/106 1/50/107 31/53/108
f 35/44/109 40/54/110 32/51/111 1/50/112
f 30/34/113 12/33/114 39/14/115 38/39/116
f 36/36/117 35/44/118 1/50/119 4/12/120
f 40/1/121 9/3/122 27/32/123 37/40/124
f 39/14/125 12/33/126 36/15/127
